<svg width="54" height="117" viewBox="0 0 54 117" fill="none" xmlns="http://www.w3.org/2000/svg">
<path d="M3.9375 21.1094H23.625C29.8438 21.1094 34.5469 21.5937 37.7344 22.5625C40.9531 23.5313 43.5469 25.5 45.5156 28.4688C47.4844 31.4063 48.4688 36.1562 48.4688 42.7188C48.4688 47.1562 47.7656 50.25 46.3594 52C44.9844 53.75 42.25 55.0938 38.1562 56.0312C42.7188 57.0625 45.8125 58.7812 47.4375 61.1875C49.0625 63.5625 49.875 67.2188 49.875 72.1562V79.1875C49.875 84.3125 49.2812 88.1094 48.0938 90.5781C46.9375 93.0469 45.0781 94.7344 42.5156 95.6406C39.9531 96.5469 34.7031 97 26.7656 97H3.9375V21.1094ZM23.6719 34.0938V50.9688C24.5156 50.9375 25.1719 50.9219 25.6406 50.9219C27.5781 50.9219 28.8125 50.4531 29.3438 49.5156C29.875 48.5469 30.1406 45.8125 30.1406 41.3125C30.1406 38.9375 29.9219 37.2812 29.4844 36.3438C29.0469 35.375 28.4688 34.7656 27.75 34.5156C27.0625 34.2656 25.7031 34.125 23.6719 34.0938ZM23.6719 62.7812V84.0156C26.4531 83.9219 28.2188 83.4844 28.9688 82.7031C29.75 81.9219 30.1406 80 30.1406 76.9375V69.8594C30.1406 66.6094 29.7969 64.6406 29.1094 63.9531C28.4219 63.2656 26.6094 62.875 23.6719 62.7812Z" fill="black"/>
</svg>
