<svg width="54" height="117" viewBox="0 0 54 117" fill="none" xmlns="http://www.w3.org/2000/svg">
<path d="M3.9375 21.1094H18.7031C28.2344 21.1094 34.6719 21.5469 38.0156 22.4219C41.3906 23.2969 43.9531 24.7344 45.7031 26.7344C47.4531 28.7344 48.5469 30.9687 48.9844 33.4375C49.4219 35.875 49.6406 40.6875 49.6406 47.875V74.4531C49.6406 81.2656 49.3125 85.8281 48.6562 88.1406C48.0312 90.4219 46.9219 92.2188 45.3281 93.5312C43.7344 94.8125 41.7656 95.7188 39.4219 96.25C37.0781 96.75 33.5469 97 28.8281 97H3.9375V21.1094ZM23.6719 34.0938V84.0156C26.5156 84.0156 28.2656 83.4531 28.9219 82.3281C29.5781 81.1719 29.9062 78.0625 29.9062 73V43.5156C29.9062 40.0781 29.7969 37.875 29.5781 36.9062C29.3594 35.9375 28.8594 35.2344 28.0781 34.7969C27.2969 34.3281 25.8281 34.0938 23.6719 34.0938Z" fill="black"/>
</svg>
