<svg width="49" height="117" viewBox="0 0 49 117" fill="none" xmlns="http://www.w3.org/2000/svg">
<path d="M3.9375 21.1094H23.8125C29.1875 21.1094 33.3125 21.5312 36.1875 22.375C39.0938 23.2188 41.2656 24.4375 42.7031 26.0312C44.1719 27.625 45.1562 29.5625 45.6562 31.8438C46.1875 34.0938 46.4531 37.5938 46.4531 42.3438V48.9531C46.4531 53.7969 45.9531 57.3281 44.9531 59.5469C43.9531 61.7656 42.1094 63.4688 39.4219 64.6562C36.7656 65.8438 33.2812 66.4375 28.9688 66.4375H23.6719V97H3.9375V21.1094ZM23.6719 34.0938V53.4062C24.2344 53.4375 24.7188 53.4531 25.125 53.4531C26.9375 53.4531 28.1875 53.0156 28.875 52.1406C29.5938 51.2344 29.9531 49.375 29.9531 46.5625V40.3281C29.9531 37.7344 29.5469 36.0469 28.7344 35.2656C27.9219 34.4844 26.2344 34.0938 23.6719 34.0938Z" fill="black"/>
</svg>
