<svg width="53" height="117" viewBox="0 0 53 117" fill="none" xmlns="http://www.w3.org/2000/svg">
<path d="M49.0781 97V106.188H34.1719C30.5781 106.188 28.0469 105.906 26.5781 105.344C25.1094 104.812 24.1094 104 23.5781 102.906C23.0781 101.812 22.8281 99.8438 22.8281 97C18.3594 96.875 14.5156 95.7031 11.2969 93.4844C8.07812 91.2656 5.95312 88.4531 4.92188 85.0469C3.89062 81.6094 3.375 76.4844 3.375 69.6719V46.1875C3.375 41.0312 3.67188 37.1094 4.26562 34.4219C4.89062 31.7031 6.15625 29.1563 8.0625 26.7812C9.96875 24.375 12.4219 22.5625 15.4219 21.3438C18.4219 20.125 21.75 19.5156 25.4062 19.5156C29.8125 19.5156 33.7344 20.2656 37.1719 21.7656C40.6406 23.2656 43.2188 25.1719 44.9062 27.4844C46.625 29.7969 47.7344 32.2031 48.2344 34.7031C48.7656 37.1719 49.0312 40.8594 49.0312 45.7656V70.4219C49.0312 77.1719 48.7031 81.75 48.0469 84.1562C47.3906 86.5625 46.125 88.4844 44.25 89.9219C42.4062 91.3281 39.9375 92.4062 36.8438 93.1562C36.9375 94.8438 37.2812 95.9062 37.875 96.3438C38.5 96.7812 39.9531 97 42.2344 97H49.0781ZM29.2969 40.6094C29.2969 37.0781 29.0938 34.8281 28.6875 33.8594C28.3125 32.8594 27.5156 32.3594 26.2969 32.3594C25.2656 32.3594 24.4688 32.7656 23.9062 33.5781C23.375 34.3594 23.1094 36.7031 23.1094 40.6094V76.0469C23.1094 80.4531 23.2812 83.1719 23.625 84.2031C24 85.2344 24.8438 85.75 26.1562 85.75C27.5 85.75 28.3594 85.1562 28.7344 83.9688C29.1094 82.7812 29.2969 79.9531 29.2969 75.4844V40.6094Z" fill="black"/>
</svg>
