<svg width="52" height="148" viewBox="0 0 52 148" fill="none" xmlns="http://www.w3.org/2000/svg">
<path d="M46.9219 86.8125L46.4531 87.7031L45.7031 88.8281L44.3438 89.3438L42.4219 90.375L40.5938 90.9375C39.4375 91.4062 38.7656 91.6406 38.5781 91.6406C38.3594 91.6406 38.1406 91.5156 37.9219 91.2656C37.7344 91.0469 37.6406 90.8438 37.6406 90.6562C37.6406 90.3438 37.7969 89.6406 38.1094 88.5469C38.2656 88.2344 38.3906 87.6875 38.4844 86.9062L37.5469 87.5156L33.3281 88.9219C32.4844 89.3281 31.6406 89.5312 30.7969 89.5312H30.7031H28.875L26.6719 90.5625L25.1719 90.75L20.8125 91.6406L19.0312 91.3594L17.7656 91.8281L16.875 92.0156L15.4688 91.9219L12.375 91.2656L10.2656 91.0781C8.82812 90.8906 7.57812 90.4062 6.51562 89.625C5.48438 88.8125 4.71875 87.7812 4.21875 86.5312L2.95312 86.0625L2.67188 84.8906L2.57812 84.0469L1.92188 81.8438L3.65625 78.375L4.21875 76.8281C4.40625 76.4219 4.98438 75.8281 5.95312 75.0469L9.60938 72.0469L11.1562 71.4844L13.7344 70.4062C13.7656 70.4062 13.8281 70.4219 13.9219 70.4531C14.0156 70.4531 14.1094 70.4688 14.2031 70.5C14.8281 69.1562 16.0156 68.4844 17.7656 68.4844L18.0469 68.2031H19.0312C19.4375 67.7031 19.8438 67.3594 20.25 67.1719C20.6562 66.9844 21.4219 66.7812 22.5469 66.5625L28.4062 65.5312L30.1406 65.7188L32.3438 65.25L36.2812 64.8281C37.625 64.5156 38.2969 63.875 38.2969 62.9062C38.2969 62.7812 38.2656 62.6875 38.2031 62.625L37.7344 60.5156L38.1094 57.4688C38.0156 56.8125 37.7812 56.3438 37.4062 56.0625C37.0312 55.75 36.4688 55.5469 35.7188 55.4531L35.0625 54.375C34.375 53.25 33.8125 52.5312 33.375 52.2188C32.9375 51.875 32.1094 51.5781 30.8906 51.3281L28.2188 50.7188L25.6406 50.625L24.375 50.8125C24.0938 50.6875 23.875 50.5312 23.7188 50.3438C23.5625 50.1562 23.4375 49.875 23.3438 49.5L22.0781 50.0625L20.625 51.4219L16.0312 53.7188C15.0625 54.25 14.4219 54.7656 14.1094 55.2656L13.4531 56.2031C13.1406 56.7031 12.7188 56.9531 12.1875 56.9531L11.25 56.7656L9.89062 56.1094L8.4375 55.8281C7.96875 55.6719 7.5 55.4062 7.03125 55.0312C6.5625 54.6562 6.32812 54.3125 6.32812 54C6.32812 53.8125 6.35938 53.7188 6.42188 53.7188L7.21875 53.1562L8.71875 51.9844L10.3594 51.7031L12.8438 50.4375L15.9375 49.4062L16.7812 49.2188L18.7969 48.1406L20.4375 48.4219L26.1094 47.2031L28.5 47.2969H30.3281L32.25 47.9531L37.8281 49.0312L38.6719 49.5V50.1562L38.0156 50.5312C38.2031 51.625 38.5938 52.1719 39.1875 52.1719C39.25 52.1406 39.2969 52.125 39.3281 52.125C39.3594 52.0938 39.4062 52.0781 39.4688 52.0781L40.7812 51.5156H40.9688C41.2812 51.5156 41.4844 51.6719 41.5781 51.9844L42.5156 53.7188L43.5 54.4688V55.5469L43.3125 57.9375C43.3125 58.9688 43.8125 59.8594 44.8125 60.6094L45.4219 67.5469L44.1562 69.2812L45.6094 70.9688L45.7031 71.5781L45.4219 75.9844L45.7969 79.3594V80.1094V81.1875L45.1406 81.375C45.2031 82.1562 45.25 82.6562 45.2812 82.875C45.3125 83.0938 45.4219 83.4219 45.6094 83.8594C45.7969 84.2656 46.0156 84.75 46.2656 85.3125L46.9219 86.8125ZM39.4688 78.6562C39 78.25 38.7031 77.9062 38.5781 77.625L38.7656 75.7031L38.3906 71.3906L38.9531 70.125L37.4531 69.2812L36.6562 69.4688L32.3438 69.1875L30.3281 69.2812L28.7812 68.2031L27.8438 68.7656L25.2656 68.8594L23.4375 69.5625L22.3594 68.9531L21.0469 69.75L14.0156 73.125L12.4688 74.25L11.25 76.0781L9.60938 77.0625C9.35938 77.3125 9.23438 77.5938 9.23438 77.9062C9.23438 77.9062 9.23438 77.9219 9.23438 77.9531C9.26562 77.9844 9.29688 78.0312 9.32812 78.0938L9.70312 78.6562L9.60938 79.0781L10.6406 83.2969L9.60938 85.9688L10.3594 86.9062L11.625 85.4062C12.0625 85.7812 12.4688 86.0938 12.8438 86.3438C13.2188 86.5938 13.6719 86.8125 14.2031 87C14.7344 87.1562 15.4062 87.3281 16.2188 87.5156L17.2031 88.8281L20.4375 89.1562L21.3281 88.2656L22.2656 88.7344L22.9219 88.3594L23.4375 88.0781C24.1875 88.3281 24.625 88.4531 24.75 88.4531C25.6875 88.4531 26.9062 88.0156 28.4062 87.1406C28.5 87.0781 28.625 87.0156 28.7812 86.9531C28.9375 86.8594 29.1719 86.7188 29.4844 86.5312C32.2969 86.5312 34.1562 85.9531 35.0625 84.7969L36 83.5781L38.2969 81.6562L38.3906 81.0938L38.2969 80.4844C38.7656 80.3281 39.0625 80.1406 39.1875 79.9219C39.3125 79.7031 39.4062 79.2812 39.4688 78.6562Z" fill="black"/>
</svg>
