<svg width="58" height="149" viewBox="0 0 58 149" fill="none" xmlns="http://www.w3.org/2000/svg">
<path d="M55.3125 67.2812C55.3125 69.125 54.5312 71.2031 52.9688 73.5156L52.3125 73.3281C51.75 74.0156 51.4688 74.625 51.4688 75.1562C51.4688 75.6875 51.5625 76.3281 51.75 77.0781L51.4688 77.5469L51.2812 78.625L50.2031 79.8438L48.2812 82.4688L45.9844 83.875L40.9688 88.5156L38.7656 89.6406L34.7344 91.2812L31.125 92.0781L26.9531 92.7344H26.8594L23.9062 91.9375H21.8906L15.75 90.3438L11.9062 90.0625L9.51562 89.2656L5.20312 91L4.59375 91.1875L4.03125 91.0938L3.9375 90.0625L3.84375 88.8906L5.10938 87.8125C6.04688 87.1562 6.54688 86.6562 6.60938 86.3125L7.125 85.2344L7.875 84.1094L7.78125 78.8125C7.875 78.25 8.04688 77.8438 8.29688 77.5938C8.57812 77.3125 9.04688 77.1719 9.70312 77.1719L9.98438 75.7188L9.89062 74.9688L8.0625 74.2188L7.96875 73.6094L8.25 66.8125L8.0625 64.2344L8.53125 63.4375L9.32812 63.5312L9.42188 62.4062L8.15625 61.4219L8.0625 60.7656L8.15625 60.2031L8.34375 58.9375L7.6875 54.9062L7.78125 51.5312L7.6875 49.5156C7.6875 49.3906 7.71875 49.2969 7.78125 49.2344L8.625 47.6875C8.75 47.5625 8.8125 47.3438 8.8125 47.0312C8.8125 46.375 8.4375 45.7031 7.6875 45.0156V43.4688L7.59375 35.2188L7.3125 33.9531L7.6875 28.7969L7.3125 26.125V24.2031L8.625 22.1875L8.0625 21.0156C7.6875 20.3594 7.5 19.8438 7.5 19.4688L7.59375 18.7188C8.75 18.1875 9.32812 17.5781 9.32812 16.8906C9.32812 16.0156 8.75 15.5312 7.59375 15.4375L6.70312 13.2344L7.40625 8.26562L6.51562 6.4375C6.07812 5.84375 5.82812 5.35938 5.76562 4.98438L7.03125 4.04688L8.90625 2.59375L11.3438 1.89062L13.0781 1.04688C13.3594 0.859375 13.7031 0.765625 14.1094 0.765625C14.6094 0.765625 15.0469 0.921875 15.4219 1.23438C15.8281 1.54688 16.0312 1.90625 16.0312 2.3125C16.0312 2.625 15.75 3.42188 15.1875 4.70312L14.6719 5.64062C15.4531 6.51563 15.8438 7.15625 15.8438 7.5625V7.75L15.2812 9.85938L15.375 11.9688L14.6719 13.7969L15.1875 19.5625L14.0156 21.4844C13.8281 21.8594 13.7344 22.2188 13.7344 22.5625C13.7344 22.75 13.7656 22.875 13.8281 22.9375L15.375 25.0469L14.6719 32.4531L15.375 36.4844C15.375 37.2344 14.8906 37.7812 13.9219 38.125L12.75 38.5L12.8438 40.0469C12.875 40.7344 12.9844 41.2031 13.1719 41.4531C13.3906 41.7031 13.8906 42.0625 14.6719 42.5312L14.7656 43.5625L15.0938 46.8438C15.0938 47.2812 14.9844 47.7969 14.7656 48.3906L13.4531 51.3438C13.4531 51.75 13.9531 52.1719 14.9531 52.6094C15.3906 52.7969 15.75 52.8906 16.0312 52.8906C16.7188 52.8906 17.5156 52.375 18.4219 51.3438C19.0469 51.5312 19.5 51.625 19.7812 51.625C20.3438 51.625 21.4375 51.3438 23.0625 50.7812L27.375 49.3281C27.7812 50.1094 28.2812 50.5 28.875 50.5C29.5312 50.5 30.0469 50.4375 30.4219 50.3125L30.6094 49.3281L31.7812 49.4219L34.1719 49.3281C34.5781 49.3281 34.9688 49.5625 35.3438 50.0312C37.8125 50.0938 39.6875 50.2812 40.9688 50.5938C42.5312 50.9062 43.625 51.3125 44.25 51.8125C44.9062 52.3125 45.3281 53.125 45.5156 54.25L46.9219 54.5312C47.2656 53.9375 47.6562 53.6406 48.0938 53.6406C48.3438 53.6406 48.5 53.7031 48.5625 53.8281L49.3594 54.9062L50.7656 56.1719L51.6562 58.1875L53.2031 59.7812L53.5781 60.5781L54.2344 63.9062L55.125 65.7344C55.25 66.1406 55.3125 66.6562 55.3125 67.2812ZM47.1562 71.875L46.4531 65.8281L46.5469 64.2344C46.5469 63.5781 46.4219 63.1875 46.1719 63.0625L44.25 61.7031L43.3125 59.9688C42.8438 59.25 42 58.5469 40.7812 57.8594L37.0781 55.75L34.7344 54.5312L28.4062 53.9219L24.6562 53.2656C23.6875 53.2656 22.8906 53.4219 22.2656 53.7344L17.7656 56.3594L14.5781 58.0938C14.2656 58.625 14.1094 59.1562 14.1094 59.6875L14.4844 63.7188L14.7656 66.5312V67.5625L14.6719 68.5469L13.5469 70.75L14.8594 74.875L14.4844 77.1719L14.7656 83.5938C14.7656 83.5938 14.7656 83.7188 14.7656 83.9688C14.0156 84.5312 13.5156 85.1719 13.2656 85.8906C14.0156 86.6719 14.625 87.0625 15.0938 87.0625L18.4219 87.25L19.9688 87.9062H21.5156L23.4375 88.6094L24.75 88.9844L24.6562 89.3594L25.8281 88.8906H26.4844L30.7969 89.0781L34.2656 88.1406C36.7656 87.7031 38.625 86.8281 39.8438 85.5156L41.9531 83.2188L43.4062 81.7656L45.1406 78.4375L46.2656 76.2344L46.7344 73.0469L47.1562 71.875Z" fill="black"/>
</svg>
