<svg width="48" height="148" viewBox="0 0 48 148" fill="none" xmlns="http://www.w3.org/2000/svg">
<path d="M46.5469 81.0938C46.5469 81.2812 46.5156 81.4375 46.4531 81.5625L45.8906 83.9531C45.8906 83.9844 45.8906 84.0312 45.8906 84.0938C45.9219 84.1562 45.9531 84.2344 45.9844 84.3281L43.9688 86.8125L42.7969 87.1406L40.9688 88.3594L40.2188 88.5469L38.1094 89.625H37.9219L34.9219 89.5312C34.3906 89.5312 33.6562 89.75 32.7188 90.1875L30.3281 91.5469L26.5781 91.8281L22.8281 91.5469L21.9844 90.8438L19.2188 90.4688L16.125 89.625L11.8125 88.6406L9.79688 86.9062L7.96875 85.0312L8.53125 83.3906C7.9375 83.6406 7.39062 83.7656 6.89062 83.7656H6.51562L5.67188 82.7812L4.5 80.7656L3.84375 79.9219L3.5625 77.25L3.9375 75.8906L3.5625 75.1406L2.57812 74.0625L3.1875 71.6719L2.95312 67.3594L4.59375 64.5469L6.60938 60.4219L9.23438 58.2188L13.9219 53.7188L15.2812 52.7344L17.1094 51.4219L17.9531 51.1406L19.875 49.6875L25.9219 47.7656L27.375 47.3906C27.4375 47.3906 27.4844 47.4062 27.5156 47.4375C27.5781 47.4375 27.625 47.4531 27.6562 47.4844L30.0469 48.5156L32.4375 47.8594L36.9375 48.6094L40.7812 48.0469C41.25 48.1719 41.7656 48.3594 42.3281 48.6094C42.0781 49.6094 41.7969 50.2812 41.4844 50.625C41.2031 50.9375 40.5938 51.2969 39.6562 51.7031L39.5625 52.7344L37.6406 53.9062L36.2812 54.5625H36.0938L34.8281 54.375L33.2344 54.5625L26.0156 53.4375C25.7656 53.375 25.4062 53.3438 24.9375 53.3438C24.5 53.3438 24.1875 53.375 24 53.4375L20.0625 54.1875H18.7969C17.7344 54.375 16.6875 55.2031 15.6562 56.6719L13.6406 57.375L12.75 59.2969L11.1562 59.5781C11.2812 59.8281 11.3438 60.0469 11.3438 60.2344L9.42188 63.9844L9.23438 65.625L9.32812 68.4844C9.35938 69.8594 9.46875 71 9.65625 71.9062C9.84375 72.8125 10.1719 73.7188 10.6406 74.625L10.2656 75.7031C9.95312 76.2344 9.79688 76.5781 9.79688 76.7344C9.79688 76.9219 9.89062 77.1562 10.0781 77.4375C11.0156 77.6875 11.4688 77.8125 11.4375 77.8125C11.7188 78.0312 12.1875 78.6094 12.8438 79.5469L14.1094 81.2812C14.1719 81.4062 14.2344 81.5469 14.2969 81.7031C14.3594 81.8594 14.4531 82.0625 14.5781 82.3125H15.6562L16.2188 83.1094L19.3125 85.3125L20.625 86.4375L22.1719 86.9062L23.5312 87.4219L25.6406 87.5156L31.0312 88.0781C31.0938 88.1094 31.1406 88.1406 31.1719 88.1719C31.2031 88.1719 31.2188 88.1719 31.2188 88.1719C31.75 88.1719 32.8594 87.7188 34.5469 86.8125L35.4375 87.1406L38.6719 84.8906C39.5156 84.7656 40.3438 84.4219 41.1562 83.8594C41.9688 83.2969 43.0625 82.2969 44.4375 80.8594C44.8438 80.3594 45.2344 80.1094 45.6094 80.1094C45.8594 80.1094 46.0781 80.2031 46.2656 80.3906C46.4531 80.5781 46.5469 80.8125 46.5469 81.0938Z" fill="black"/>
</svg>
