<svg width="58" height="148" viewBox="0 0 58 148" fill="none" xmlns="http://www.w3.org/2000/svg">
<path d="M53.2031 88.2656L53.1094 89.25L52.125 89.5312L48.9375 90.0938L45.5156 90.375C45.3594 89.125 45.1875 88.3281 45 87.9844C44.8438 87.6094 44.5938 87.3281 44.25 87.1406C43.9062 87.4219 43.5938 87.625 43.3125 87.75C43.0312 87.875 42.6562 88.0312 42.1875 88.2188C41.75 88.375 41.3438 88.5469 40.9688 88.7344C37.375 90.6094 30.8281 91.5469 21.3281 91.5469C19.5156 91.5469 18.1719 91.375 17.2969 91.0312C16.4531 90.6875 15.8438 90.0938 15.4688 89.25C14.9375 89.3125 14.4844 89.5625 14.1094 90L12.6562 89.5312C12.5625 88.9062 12.4219 88.4688 12.2344 88.2188C12.0781 87.9688 11.7188 87.7344 11.1562 87.5156L10.5469 88.0781C9.54688 87.8281 8.78125 87.5 8.25 87.0938C7.71875 86.6875 6.85938 85.8281 5.67188 84.5156C5.79688 84.2031 5.85938 83.8281 5.85938 83.3906C5.85938 82.6094 5.53125 81.9688 4.875 81.4688L3.5625 80.2031L3.375 79.2656L2.57812 75.7031V74.9062C2.57812 73.8438 2.78125 72.7031 3.1875 71.4844L3.09375 70.5L3.65625 69.375L6.60938 62.5312C7.04688 61.5312 7.65625 61.0312 8.4375 61.0312H8.53125L10.0781 61.125L10.6406 57.1875L12.4688 55.7344L14.3906 53.5312L15.75 52.6406L16.5938 51.8906C16.9375 51.7031 17.2656 51.5781 17.5781 51.5156C17.8906 51.5781 18.2344 51.6094 18.6094 51.6094C19.2031 51.6406 19.5938 51.7188 19.7812 51.8438C20 51.9375 20.25 52.2031 20.5312 52.6406C21.0312 51.8906 21.8281 51.3594 22.9219 51.0469L22.8281 49.5938L24.1875 49.0312C25.4375 48.6562 26.2031 48.4219 26.4844 48.3281C26.7969 48.2031 27.2188 48.0781 27.75 47.9531L29.3906 48.0469L31.5938 47.2969L32.625 47.9531C33.125 48.2031 33.4531 48.3594 33.6094 48.4219L33.7969 48.8906C34.1406 49.1719 34.3594 49.3125 34.4531 49.3125C34.7344 49.3125 35.0938 48.8594 35.5312 47.9531L38.0156 48.5156C39.8281 48.9219 40.9688 49.2344 41.4375 49.4531C41.9375 49.6719 42.3906 50.0625 42.7969 50.625L45.6094 50.5312L45.2344 49.5938L44.7188 48.7969L44.4375 45.4688L44.1562 44.4844L44.5312 42.0938L44.1562 35.5781L44.25 34.875L45.7969 34.3125L45.1406 33.375L44.9062 32.1094L44.25 30C44 29.4062 43.875 28.6406 43.875 27.7031V27.1406L44.3438 20.4844L43.9688 17.5312L44.25 16.2656C44.8125 16.1406 45.1406 15.8281 45.2344 15.3281L44.625 14.7188C43.9375 14.6563 43.3281 14.4375 42.7969 14.0625V13.5V12.8906L42.4219 10.0312L42.2344 6.84375C42.2344 6.28125 41.8906 5.75 41.2031 5.25C41.4844 4.125 41.9844 3.48437 42.7031 3.32812L45.6094 2.71875L47.5312 1.5L49.6406 1.03125L50.6719 0.703125C51.3281 1.45312 51.6562 2.26562 51.6562 3.14062L51.5625 4.26562L51.0938 6.75L51.1875 8.10938L50.9531 12.2344V15.7031L50.3906 17.7188L50.4844 22.0312C50.3281 22.5313 49.9531 23.1719 49.3594 23.9531L50.7656 27.8906L50.4844 28.9219V31.1719L50.1094 32.1094L50.4844 35.2969C50.4844 35.7344 50.3594 36.3125 50.1094 37.0312H49.0781C48.7969 38 48.6562 38.7031 48.6562 39.1406C48.6562 39.3281 48.6875 39.4531 48.75 39.5156L50.3906 41.8125L50.2969 45.1875L50.5781 49.125L50.3906 50.7188L50.2969 51.4219L50.3906 52.3594L49.7344 53.1562L50.0156 57.5625L49.9219 60.7031L50.2969 63.7031V65.7188L50.5781 68.0156V71.6719L51.2812 75.3281L51.375 78.2812L51.9375 80.3906L52.0312 82.3125V83.7656C52.375 84.0469 52.6562 84.6719 52.875 85.6406C53.0938 86.6094 53.2031 87.4844 53.2031 88.2656ZM45.6094 68.9531L45.1406 66C44.3594 65.7188 43.9688 65.3281 43.9688 64.8281V64.6406L44.3438 62.625L44.0625 58.9688V58.0312L43.5938 56.9531L43.6875 55.8281C43.6875 55.3906 43.5 55.1719 43.125 55.1719C42.9375 55.1719 42.8281 55.0938 42.7969 54.9375L40.875 55.3594L40.4062 55.4531L39.75 55.3594L31.0312 53.25L27.8438 53.1562H26.8594C26.5469 53.1562 26.3594 53.1875 26.2969 53.25L24.6562 53.9062H22.5469L19.7812 55.7344L17.8594 56.0156L16.5 56.9531L14.5781 58.6875C13.8594 59.4375 13.4219 60.1094 13.2656 60.7031L13.0781 61.875L11.25 63.7969L9.32812 66.6562C8.79688 67.75 8.53125 68.625 8.53125 69.2812C8.53125 69.9688 8.65625 70.5781 8.90625 71.1094L9.23438 71.9531L10.2656 75.7969L11.3438 77.7188L11.4375 78.75V79.3594L12.5625 79.8281C13.4062 80.9531 14.3438 82 15.375 82.9688C16.4062 83.9062 17.4219 84.625 18.4219 85.125L20.5312 86.0625L21.2344 86.4375L22.6406 86.625H23.8125L26.4844 87.6094H27.1875H29.4844L34.1719 87.4219C35.0469 87.3906 36.2188 87.1562 37.6875 86.7188C39.1562 86.25 40.25 85.8438 40.9688 85.5L43.125 83.6719L44.1562 82.4062L43.6875 81.1875L43.9688 79.9219L44.0625 78.5625L43.9688 76.6406L43.7812 74.5312L43.875 74.25L43.9688 72.7031L43.5938 70.5938C43.5625 70.5312 43.5312 70.4844 43.5 70.4531C43.5 70.4219 43.5 70.4062 43.5 70.4062C43.5 69.6875 44.2031 69.2031 45.6094 68.9531Z" fill="black"/>
</svg>
