<svg width="52" height="148" viewBox="0 0 52 148" fill="none" xmlns="http://www.w3.org/2000/svg">
<path d="M49.0781 80.3906C49.0781 80.7969 49 81.1562 48.8438 81.4688L47.9062 83.1094L45.7031 86.9062L43.6875 87.0469L42.4219 88.0781C42.1406 88.3594 41.6562 88.5469 40.9688 88.6406L32.5312 90.2812L31.2188 90.75L28.2188 90.4688L23.9062 90.8438L19.0312 90.5625H17.6719C16.9844 90.0312 16.5625 89.7188 16.4062 89.625L11.8125 87.9844L10.2656 86.5312L7.21875 84.4219L4.78125 81.1875L3.84375 80.3906C4.21875 79.6406 4.40625 78.9688 4.40625 78.375C4.40625 78.125 4.34375 77.9375 4.21875 77.8125L2.95312 75.7969L2.67188 73.125L2.57812 70.9688C2.57812 70.25 2.75 69.2969 3.09375 68.1094C3.625 66.2344 4.0625 65.1094 4.40625 64.7344L6.14062 62.5312L7.03125 60.5156L9.23438 58.4062L11.625 55.2656L13.7344 54.0938L16.7812 51.9844L18.7969 50.625L19.5 50.1562L20.9062 49.875L25.1719 48.5156L28.5 48.1406L30.5156 47.2969L31.5 47.2031C33.0938 47.2031 34.4375 48.0625 35.5312 49.7812C36.125 49.7188 36.5625 49.3906 36.8438 48.7969L38.1094 49.875L39.8438 50.8125L43.7812 54.6562C44.2812 55.2812 44.6562 55.8281 44.9062 56.2969C45.1875 56.7344 45.4531 57.2031 45.7031 57.7031C45.9844 58.2031 46.2188 58.75 46.4062 59.3438C46.625 59.9375 46.9375 60.8438 47.3438 62.0625L47.7188 63.2344L47.25 63.4219L45.4219 63.0469L43.4062 63.7031L41.8594 63.4219L40.125 63.8906L36.8438 63.5156L33.7031 63.7031L30.4219 63.1406L25.0781 63.2344L22.4531 63.1406L16.125 63.9844L13.8281 63.8906L10.6406 64.8281L9.51562 65.0625L9.32812 66.1875C9.26562 66.9688 9.15625 67.5 9 67.7812C8.84375 68.0625 8.5 68.3906 7.96875 68.7656L8.0625 69.6562C9.09375 70.4375 9.64062 70.9219 9.70312 71.1094L10.9219 75.8906L11.5312 77.0625C11.2188 77.375 11.0625 77.6562 11.0625 77.9062C11.0625 77.9062 11.0625 77.9219 11.0625 77.9531C11.0938 77.9844 11.125 78.0312 11.1562 78.0938L12.9375 78.6562L13.3594 79.8281C13.6719 80.9219 14.0781 81.5938 14.5781 81.8438L17.1094 82.875L17.9531 84.7031C18.3906 84.9219 19.0938 85.0938 20.0625 85.2188L20.7188 86.4375L22.1719 86.625L26.2031 88.0781L29.5781 87.4219L38.4844 85.9688L40.4062 84.7969L43.4062 82.9688L45.8906 79.7344C46.3281 79.2031 46.8438 78.9375 47.4375 78.9375C48.5312 78.9375 49.0781 79.4219 49.0781 80.3906ZM38.0156 58.3125C38.0156 57.8125 37.4375 56.7656 36.2812 55.1719L33.0469 52.8281L31.9688 51.7031L30.4219 51.6094L26.8594 51.3281L26.0156 51.5156L24 52.6406L21.4219 53.25L18.1406 54.4688L16.875 54.9375L15.375 57.1875C14.4375 57.8438 13.9219 58.25 13.8281 58.4062L13.6406 58.9688L19.4062 59.3906L20.0625 59.2969L21.1406 58.9688L22.1719 59.2031L24.9375 59.7656H25.0781L28.2188 59.2031L29.2031 58.9688L29.9531 60.0469H31.0312L35.1562 59.2031L36.8438 59.3906C37.625 59.2969 38.0156 58.9375 38.0156 58.3125Z" fill="black"/>
</svg>
