<svg width="42" height="148" viewBox="0 0 42 148" fill="none" xmlns="http://www.w3.org/2000/svg">
<path d="M41.5781 2.53125L41.1094 3.60938L39.6562 5.15625L38.5781 6.46875L37.3594 7.26562L36.0938 7.92188L32.0625 5.90625C30.5625 5.125 29.375 4.73438 28.5 4.73438C27.6875 4.73438 26.3438 5.125 24.4688 5.90625C22.5 6.625 21.0938 8.125 20.25 10.4062L18.8906 14.1562L17.8594 16.3594L17.2031 19.4531L16.4062 20.4844L16.6875 21.8438L17.2031 22.125L16.9688 32.0156L16.0312 33.1875V34.5L15.9375 35.5781L17.1094 38.3438L16.6875 40.2656L17.1094 44.8594V45.0938C17.1094 45.8125 16.5938 46.5781 15.5625 47.3906L15.75 48.3281C16.8125 48.8281 17.3906 49.2188 17.4844 49.5L17.7656 51.3281C17.7656 51.7656 18.1406 51.9844 18.8906 51.9844L20.3438 52.0781L25.4531 52.3594L29.2031 51.7969L33.2344 51.4219L35.3438 50.8125L36.4688 50.7188H38.2969L39.4688 52.6406L38.3906 53.3438L34.9219 55.5469L33.1406 57.0938L28.4062 56.3906L23.5312 56.8594C22.875 56.8594 22.2656 56.7656 21.7031 56.5781C20.1094 56.1406 19.1406 55.9219 18.7969 55.9219C18.3594 55.9219 17.9688 56.1719 17.625 56.6719C17.2812 57.1719 17.1094 57.6875 17.1094 58.2188V58.5L17.8594 65.5312V65.625C17.8594 65.9375 17.4688 66.2812 16.6875 66.6562C16.5625 67.3438 16.5 67.6406 16.5 67.5469C16.5 68.0156 16.8281 68.625 17.4844 69.375L17.7656 70.6875L18.0469 76.1719L18.4219 78.0938L17.8594 78.6562C17.5469 78.6562 17.3281 78.625 17.2031 78.5625C16.7031 78.8438 16.4062 79.2656 16.3125 79.8281H16.7812L16.6875 80.2031L18.0469 81.9375V83.1094L17.8594 84.4219L18.0469 85.5938L18.3281 86.7188L17.4844 87.1406V88.4531L13.2656 90.2812L9.51562 90.75L8.90625 90.2812V89.8125L9.42188 88.7344L9.79688 85.5L10.5469 83.4844L10.8281 81.375L10.5469 78.9375C11.3906 78.0625 11.8125 77.2344 11.8125 76.4531L11.7188 75.7969L10.7344 72.5156V72.2344L10.8281 67.9219L11.0625 59.6719L11.25 58.5C12.7188 58.3125 13.4531 57.875 13.4531 57.1875C13.4531 56.7812 13.2812 56.5781 12.9375 56.5781L11.1562 56.3906L9.60938 55.7344H7.40625L5.85938 55.5469L4.875 55.4531C4.3125 55.4531 3.84375 55.5469 3.46875 55.7344C2.46875 56.0469 1.89062 56.2031 1.73438 56.2031C1.20312 56.2031 0.9375 55.9219 0.9375 55.3594C0.9375 55.1094 1.01562 54.9062 1.17188 54.75L2.10938 53.4375L3.84375 51.2344C4.28125 50.8281 4.89062 50.625 5.67188 50.625C6.20312 50.625 6.9375 50.7656 7.875 51.0469L10.3594 49.6875L10.2656 49.125L10.7344 46.0312L10.5469 41.0625C10.6406 40.125 11 39.3438 11.625 38.7188L10.0781 36.5156L10.1719 35.4844L9.89062 25.125C9.89062 24.1562 10.1406 23.25 10.6406 22.4062L12.2812 19.6406C12.2812 19.3594 11.9375 18.9688 11.25 18.4688C11.5625 16.25 12.5781 13.875 14.2969 11.3438C16.0469 8.78125 17.9375 6.90625 19.9688 5.71875L25.8281 2.15625L27.0938 1.3125L28.6875 1.125L31.7812 0.328125L33.3281 0.796875L36.8438 0.703125C37.4375 0.734375 37.9688 0.890625 38.4375 1.17188C38.9375 1.45312 39.5312 1.9375 40.2188 2.625C40.4688 2.375 40.6875 2.25 40.875 2.25C41.0625 2.25 41.2969 2.34375 41.5781 2.53125Z" fill="black"/>
</svg>
