<svg width="63" height="148" viewBox="0 0 63 148" fill="none" xmlns="http://www.w3.org/2000/svg">
<path d="M61.9844 102.281C61.9844 103.688 61.2188 106.062 59.6875 109.406L59.4062 110.344C58.875 110.688 58.5469 110.969 58.4219 111.188C58.2969 111.406 57.8594 112.125 57.1094 113.344L55.9375 115.172L55.2812 115.266L54.1094 116.391L52.375 117.469C52.1562 117.625 51.75 118.094 51.1562 118.875L41.8281 123.422L40.9375 123.516L38.3594 124.547L32.5938 125.25L28.375 126.469L23.4062 126.375L22.3281 126.562L21.2969 126L20.4062 126.188H17.9219L16 126.375L12.625 124.734L8.6875 124.078L5.07812 121.406L2.64062 120.234C2.10938 119.734 1.60938 118.844 1.14062 117.562C0.671875 116.312 0.4375 115.188 0.4375 114.188C0.4375 113.688 0.828125 112.594 1.60938 110.906L2.07812 109.875L2.82812 109.219L4 108.797L6.39062 106.312L10.0469 104.859L11.0312 104.297C11.2812 104.297 11.5 104.406 11.6875 104.625C11.875 104.844 11.9688 105.125 11.9688 105.469C11.9688 105.719 11.9062 105.875 11.7812 105.938L8.78125 108.703L8.3125 109.781L7.84375 111.047L7.65625 111.797L7.84375 113.062C7.0625 113.625 6.67188 114.031 6.67188 114.281C6.67188 114.438 6.90625 114.797 7.375 115.359L7.65625 115.172L8.6875 115.734C9.125 116.609 9.42188 117.125 9.57812 117.281L13.7031 119.859L14.5469 121.125L16.1875 121.688C17.0625 121.938 17.7656 122.062 18.2969 122.062H18.5781L20.6875 121.875L23.7812 122.438L25.2344 122.156L32.0312 122.25L34.3281 121.688L40.2812 120.328L44.3125 118.781L46.2344 118.688L47.2188 117.938L47.7812 117.094L49.2344 116.203L51.7188 114.469L52.6562 114.094V113.25C53.75 112.688 54.2969 112.109 54.2969 111.516V111.328L53.9219 109.781L55.1875 104.859L55.2812 103.828L54.2969 103.359L54.0156 102.375L52.0938 98.4375L51.9062 97.2188C51.5938 96.5625 50.3438 95.9219 48.1562 95.2969L47.2188 94.9688L44.9688 94.4062L42.4844 94.5L40.8438 94.125L36.9062 94.2188L34.6094 93.1875L32.5938 94.125C31.9062 94.5625 30.9531 94.7812 29.7344 94.7812H26.3594H24.7188C23.4375 94.2188 22.6094 93.9375 22.2344 93.9375L21.8594 94.125L20.0312 95.2969C19.7812 95.4219 19.6562 95.4844 19.6562 95.4844C18.875 95.4844 17.1719 94.9688 14.5469 93.9375C13.3906 93.4688 12.1719 92.7344 10.8906 91.7344L10.5156 90.6562C10.0781 89.5312 9.85938 88.4531 9.85938 87.4219C9.85938 86.4844 10.1719 85.75 10.7969 85.2188L13.6094 82.6875L14.5469 81.8438L16 81.0938L17.5469 80.2031L19.2812 80.0156C20.0625 79.8281 20.8281 79.25 21.5781 78.2812H20.6875L19.4688 78.375L17.8281 78.4688C17.1719 78.4688 16.2812 78.1875 15.1562 77.625L14.1719 77.1562L13.5156 76.1719L13.2344 75.1406C13.2031 74.7969 12.9531 74.5 12.4844 74.25C12.0469 74 11.4531 73.8438 10.7031 73.7812L10.0469 72.5156L9.20312 71.2969C8.98438 71.1094 8.875 70.75 8.875 70.2188V69.4688L9.29688 67.4531L9.39062 65.25L10.4219 63.3281L10.6094 60.2344C10.6406 60.0156 11.3438 59.1562 12.7188 57.6562L13.7969 56.4844C13.8906 56.3906 14.0156 56.2969 14.1719 56.2031C14.3281 56.1094 14.4219 56.0469 14.4531 56.0156L15.8125 55.3594L16.5625 54.5625C17.6875 53.4375 18.4844 52.7031 18.9531 52.3594C19.4531 52.0156 20.0938 51.7969 20.875 51.7031L21.2969 51.1406L22.4219 50.9062L30.4844 49.125L38.8281 49.9688L40.8438 48.6094C41.8438 47.9844 42.6562 47.6719 43.2812 47.6719C43.4062 47.6719 43.5 47.6875 43.5625 47.7188C43.625 47.7188 43.6875 47.7344 43.75 47.7656L46.0469 48.1406L50.7344 48.0469C51.3594 48.1094 51.9375 48.4688 52.4688 49.125C53.3125 48.7812 53.7656 48.5156 53.8281 48.3281L54.2969 46.875C54.3281 46.6875 54.7812 46.4531 55.6562 46.1719C56.5312 45.8906 57.4844 45.5938 58.5156 45.2812L59.4062 44.9531L60.0625 45.8438C59.9062 46.5938 59.7188 47.1719 59.5 47.5781C59.3125 47.9531 59 48.3125 58.5625 48.6562C58.125 48.9688 57.5625 49.2812 56.875 49.5938L55.9375 50.0625C55.8438 50.7812 55.7031 51.25 55.5156 51.4688C55.3594 51.6875 54.9219 52.0469 54.2031 52.5469L52.75 53.625C52.5 53.75 52.125 53.8125 51.625 53.8125L49.8906 53.7188L47.875 53.625L46.5156 53.7188H45.3906L45.2969 54.1875C46.3594 54.75 47.1094 55.2812 47.5469 55.7812C48.0156 56.2812 48.375 56.9688 48.625 57.8438L49.5156 58.4062V60.5156H48.9062L48.8125 61.125L47.875 61.5L48.5312 62.625C48.7812 63.0938 48.9062 63.4531 48.9062 63.7031C48.9062 64.1406 48.7812 64.4844 48.5312 64.7344L46.5156 67.2656L45.9531 68.1094L42.2031 71.3906L41.5469 72.5156C41.2344 72.9219 40.3594 73.5 38.9219 74.25L36.1562 75.7969C34.8125 76.5469 32.4062 77.0938 28.9375 77.4375L28.6562 78L28.75 79.1719C28.75 79.8594 28.5312 80.2031 28.0938 80.2031L25.1406 80.6719L23.2188 81.75L20.9688 82.3125C20.125 82.5312 19.3594 83.0938 18.6719 84C17.9844 84.875 17.6406 85.6875 17.6406 86.4375L17.7344 87.3281L19.8438 89.1562L20.7812 88.7344L24.8125 89.25L27.8125 88.9219L29.5469 89.8125L30.2969 89.9062H30.5781L31.9375 88.7344C32.5938 88.2969 33.3906 88.0781 34.3281 88.0781H39.9062H40.4688L41.6406 88.9219L42.2969 89.3438C42.7344 89.3438 43.1562 88.8906 43.5625 87.9844L45.2031 88.0781C47.3906 88.1719 48.5938 88.2969 48.8125 88.4531L50.3594 89.25L54.0156 90.375L55.4688 91.2656L55.375 92.5781C55.875 92.7344 56.1875 93.0625 56.3125 93.5625L57.4844 93.4688L58.5156 93.375C59.2344 93.375 59.75 93.8125 60.0625 94.6875L60.3438 96.1406L61.8906 101.719L61.9844 102.281ZM41.9219 65.5312L41.8281 63.6094V62.4844C41.8281 60.5781 41.5781 59.4531 41.0781 59.1094L38.5469 56.7656L37.3281 54.9375L33.6719 53.1562L32.3125 52.6406L31.0938 52.4531L29.4531 53.25L28.2812 53.0625L26.9219 52.8281L26.2656 52.9219L24.0625 53.9062H22.6094L21.2031 54.6562L20.3125 55.0781L18.0156 57.4688C17.3281 58 16.8906 58.4688 16.7031 58.875C16.5469 59.2812 16.375 60.125 16.1875 61.4062L15.8125 63.9844L16 65.0625V65.9062C16.0312 66.3125 16.1406 66.6406 16.3281 66.8906C16.5469 67.1094 17.0469 67.4531 17.8281 67.9219L17.5469 69.1875C17.5469 69.9062 17.7344 70.3125 18.1094 70.4062L20.0312 71.2969L22.5156 73.2188C23.0469 73.5312 23.7031 73.75 24.4844 73.875C25.2656 74 26.4375 74.0625 28 74.0625C29.5 74.0625 30.6875 73.875 31.5625 73.5L35.125 71.9531L37.1406 71.5781L38.4531 70.3125L40.6562 68.6719L41.4531 66.375L41.9219 65.5312Z" fill="black"/>
</svg>
