<svg width="55" height="149" viewBox="0 0 55 149" fill="none" xmlns="http://www.w3.org/2000/svg">
<path d="M48.75 59.3125L48.6562 62.4062C48.625 63.625 48.5469 64.3906 48.4219 64.7031C48.3281 65.0156 47.9688 65.5 47.3438 66.1562L48.0938 67.9375L46.8281 69.8594L48.1875 71.2188V79L47.3438 79.9375L47.5312 81.3906L48.0938 84.8594L48 87.9062V88.9844C48 89.8594 47.3906 90.3438 46.1719 90.4375L44.9062 90.5312L42.0469 92.0781L41.1094 92.6406L39.1875 91L39.4688 89.7344L41.2031 84.5781L40.5 80.7344L41.5781 76.5156C41.7656 75.6094 41.8594 74.3906 41.8594 72.8594C41.0781 72.5156 40.6875 72.0312 40.6875 71.4062C40.6875 70.625 40.8906 69.6406 41.2969 68.4531C41.5469 67.6719 41.6719 66.8281 41.6719 65.9219V65.5469L41.2969 62.0312L41.7656 60.2031L41.2969 59.3125L40.5938 57.7656C40.375 57.2344 40.0938 56.9219 39.75 56.8281L38.0156 56.2656L35.4375 54.8125L33.7031 54.9062L30.7969 54.5312L26.9531 54.625L24.9375 54.7188C23.9688 54.9062 23.0781 55.1875 22.2656 55.5625L19.7812 57.0156L17.7656 57.7656L16.5938 58.8438L15.0938 60.5781L14.1094 61.7969L14.7656 64.7031L14.2031 71.875L14.2969 72.3906L13.6406 72.2031L13.3594 72.5781H12.75L12.9375 73.5156L14.2969 75.3438C14.3594 75.3438 14.3906 75.375 14.3906 75.4375L14.7656 79.4688L14.9531 81.6719L15.1875 83.125V83.6875L14.7656 84.5781L14.9531 88.8906L14.2969 90.1562L13.8281 90.0625L13.3594 90.1562L12.4688 90.625C12.2812 90.6875 11.875 90.7188 11.25 90.7188L10.3594 91.4688C9.32812 92.375 8.53125 92.8906 7.96875 93.0156L7.5 91.9375L7.21875 91.75L7.3125 89.9219L7.875 87.8125V85.8906L8.90625 84.2031L9.14062 83.125C8.42188 82.1562 8.0625 81.4531 8.0625 81.0156L8.625 67.0938L8.4375 62.7812L10.3594 59.4062L10.1719 58.375L9.51562 59.0312C9.04688 58.5625 8.75 58.1562 8.625 57.8125C8.5 57.4688 8.4375 56.9219 8.4375 56.1719V45.3906L8.71875 43.6562H9.32812L10.2656 42.7188C9.76562 42.4375 9.51562 41.8906 9.51562 41.0781C8.70312 40.6406 8.25 40.2188 8.15625 39.8125V36.2031L7.78125 30.7188L8.34375 29.2656L8.53125 28.3281L7.5 26.9688L7.59375 25.8906L7.78125 24.6719L8.15625 23.5938L8.4375 22.5625C7.625 21.4688 7.21875 20.7969 7.21875 20.5469L7.3125 11.5L6.23438 7.09375V6.15625L5.10938 5.26562C5.26562 4.70312 5.67188 4.21875 6.32812 3.8125L10.0781 1.89062C11.5469 1.14062 12.6094 0.765625 13.2656 0.765625C14.2344 0.765625 14.7656 1.01562 14.8594 1.51562L14.4844 4.79688L14.3906 10.8438C14.3906 11.7812 14.1094 12.4219 13.5469 12.7656L12.4688 13.3281C12.0312 13.5469 11.8125 13.9688 11.8125 14.5938C11.8125 14.75 11.875 15.2969 12 16.2344L12.5625 16.3281C13.125 15.7656 13.7656 15.4375 14.4844 15.3438V16.2344L14.0156 24.9531L14.1094 27.7188L12.9375 30.0625V31.0938C13.9688 32.2812 14.4844 33.1406 14.4844 33.6719V33.9531L13.8281 35.125V35.2188L14.2969 39.1562L14.4844 39.7188L14.3906 40.3281L13.9219 41.7344L14.3906 43.75L14.2031 45.4844L14.4844 46.6562L13.9219 54.4375L14.0156 55.0938L14.4844 55.375L21.6094 50.0312L22.3594 50.4062L25.3594 49.2344L27.1875 48.8594L29.3906 48.5781C30.2656 48.6719 30.8125 49.3125 31.0312 50.5H32.1562L33.1406 49.7969L34.1719 48.7656L36.2812 49.0469L41.7656 49.4219L44.4375 52.0469L45.9844 52.9844L46.7344 54.25L45.6094 54.9062C46.1406 55.2188 46.5156 55.375 46.7344 55.375L47.4375 55.1875C48.3125 56.25 48.75 57.625 48.75 59.3125Z" fill="black"/>
</svg>
