<svg width="20" height="148" viewBox="0 0 20 148" fill="none" xmlns="http://www.w3.org/2000/svg">
<path d="M17.4844 23.9531C17.4844 24.6406 17.3125 25.0937 16.9688 25.3125L13.5469 27.7969L12.1875 29.1562L9.70312 30.8438C8.04688 32.0625 7.04688 32.6719 6.70312 32.6719C6.54688 32.6719 6.375 32.5781 6.1875 32.3906C6.03125 32.1719 5.95312 31.9531 5.95312 31.7344C5.95312 31.0156 6.14062 30.4688 6.51562 30.0938L11.3438 25.5L13.9219 22.0312C14.2969 21.8438 14.7188 21.75 15.1875 21.75C15.8125 21.75 16.3438 21.9688 16.7812 22.4062C17.25 22.8125 17.4844 23.3281 17.4844 23.9531ZM14.6719 48.7969C14.0781 50.1094 13.7344 51.3281 13.6406 52.4531L13.3594 57.0938L12.4688 58.6875C12.4688 58.75 12.4531 58.8125 12.4219 58.875C12.4219 58.9375 12.4062 59.0156 12.375 59.1094C12.375 59.5156 12.7656 59.9531 13.5469 60.4219L13.3594 61.875V70.9688L13.1719 78.2812L13.8281 81.375V82.9688L14.0156 86.1562C13.8594 86.625 12.875 87.5469 11.0625 88.9219L8.71875 90.75C8.34375 91.1562 7.875 91.3594 7.3125 91.3594C6.90625 91.3594 6.54688 91.2344 6.23438 90.9844C5.92188 90.7344 5.76562 90.4688 5.76562 90.1875C5.76562 89.375 6.01562 88.4219 6.51562 87.3281L6.89062 85.9688L6.42188 85.5L7.125 77.625L7.40625 76.8281L8.625 76.6406V75.1406C8.625 74.1719 8.54688 73.4531 8.39062 72.9844C8.23438 72.5156 7.84375 71.8906 7.21875 71.1094L7.3125 69.5625V69.2812L7.21875 68.4844C7.21875 67.4531 7.40625 66.5312 7.78125 65.7188L7.125 64.9219L7.21875 62.3438C7.65625 62.0938 7.875 61.8125 7.875 61.5L7.78125 60.7031L6.42188 60.5156V59.1094L6.51562 57.8438V55.9219C6.51562 55.0781 6.42188 54.4531 6.23438 54.0469C6.07812 53.6406 5.70312 53.2031 5.10938 52.7344C5.51562 51.6406 6.4375 50.6875 7.875 49.875L12.375 47.2969C13.2188 47.3906 13.9844 47.8906 14.6719 48.7969Z" fill="black"/>
</svg>
