<svg width="45" height="148" viewBox="0 0 45 148" fill="none" xmlns="http://www.w3.org/2000/svg">
<path d="M40.0938 24.5156C40.0938 24.5156 40.0781 24.5625 40.0469 24.6562C40.0156 24.75 39.9844 24.8281 39.9531 24.8906C39.7969 25.1094 39.7344 25.2188 39.7656 25.2188L33.4375 29.5312L30.4844 31.8281L29.6875 32.2969L28.75 30.8438C29.9688 29.0938 31.25 27.75 32.5938 26.8125L32.875 25.875L34.2344 24.3281L36.3438 21.9375C36.6562 21.5625 37.0625 21.375 37.5625 21.375H38.2656L38.6406 22.3125L39.4844 23.2969C39.8906 23.8281 40.0938 24.2344 40.0938 24.5156ZM39.7656 104.016L39.3906 109.781C39.2969 111.719 39.0781 113.281 38.7344 114.469L37.375 114.844L37.2812 115.359L38.0781 117.844L36.9062 123.422L36.7188 124.078C36.7188 124.516 36.2969 125.672 35.4531 127.547L34.5156 129.844L33.9062 131.109L33.0625 131.297L32.5938 132.328L31.4219 133.969L29.0312 137.719L25.5625 141.281L24.8125 142.406L22.0469 143.672L21.3438 144.516C20.9062 145.078 20.4688 145.438 20.0312 145.594L19.4219 145.406C19.1094 145.406 17.8906 145.75 15.7656 146.438H13.1875L9.90625 147.516C8.3125 147.766 7.04688 147.891 6.10938 147.891C5.01562 147.891 3.70312 147.125 2.17188 145.594C0.890625 144.406 0.25 143.469 0.25 142.781C0.25 142.5 0.421875 142.234 0.765625 141.984C1.10938 141.766 1.46875 141.656 1.84375 141.656L2.54688 141.75L8.40625 143.766H10.9844L12.1562 144.609L13.2812 144.891L14.4531 143.953L17.5938 143.672L19.0469 142.688L22.6094 141.094L24.3438 139.359C26.0938 137.547 27.1406 136.234 27.4844 135.422L30.2031 129.188L31.7031 127.266L31.3281 124.828L32.3125 118.594V114.656L33.7188 112.172L33.8125 111.047C33 110.766 32.5938 110.156 32.5938 109.219V108.422L32.9688 104.203L32.875 100.172L33.25 97.5938L34.1406 97.3125C34.1406 97.3125 34.3281 97.375 34.7031 97.5L35.0781 96.0469L34.5156 95.4844C34.1406 95.6094 33.9062 95.6719 33.8125 95.6719C33.625 95.6719 33.2812 95.5469 32.7812 95.2969L32.6875 87.7031H34.3281L34.6094 86.7188C34.6094 85.9688 34.375 85.2812 33.9062 84.6562C33.4688 84.0312 32.9375 83.6094 32.3125 83.3906L32.5 75.4219L33.3438 75.5156C33.75 75.5156 34 75.4219 34.0938 75.2344C34.1875 75.0156 34.2344 74.4375 34.2344 73.5L33.8125 73.0312C32.625 73.0312 32.0312 72.7969 32.0312 72.3281L32.3125 70.2188L32.5 69.1875H32.9688C33.2188 68.3125 33.3438 67.5312 33.3438 66.8438C33.3438 65.2188 33.1562 64.1719 32.7812 63.7031L31.7031 62.1562L31.3281 54.9375L29.875 53.3438L30.9531 51.5156L32.2188 51.0469L37.375 47.6719C37.6562 47.4844 37.9531 47.3906 38.2656 47.3906C38.9219 47.3906 39.2969 47.9688 39.3906 49.125L39.1094 50.5312L39.3906 52.7344L39.1094 57.75L39.2031 58.6875L38.0781 60.7969L38.1719 62.3438L37.75 63.9844C38.9688 64.2656 39.5781 64.75 39.5781 65.4375L39.0156 68.8594L39.2969 76.4531L38.9219 79.2656L39.2031 81.4688L39.0156 84.7031L39.4844 87.9844L39.6719 89.3438V91.1719L39.5781 93.5625V95.1094L39.6719 96.7969V97.4062L39.1094 98.8125L38.9219 100.078L39.0156 101.062L39.7656 104.016Z" fill="black"/>
</svg>
