<svg width="53" height="149" viewBox="0 0 53 149" fill="none" xmlns="http://www.w3.org/2000/svg">
<path d="M51.9375 86.9688C51.9375 87.4375 51.5781 88.2969 50.8594 89.5469L50.6719 89.9219C50.0469 91.2031 49.1875 91.9219 48.0938 92.0781L45.6094 92.3594L44.625 92.9219C44.5 92.9844 44.3438 93.0156 44.1562 93.0156C43.8438 93.0156 43.625 92.9844 43.5 92.9219L41.5781 92.2656L38.6719 91.4688L36.2812 90.4375L35.3438 89.8281L35.4375 88.6094C35.4375 87.8281 34.8594 87.4375 33.7031 87.4375H32.625L32.3438 88.0469L31.3125 87.4375L25.1719 82.375L23.7188 81.8594L16.125 75.625C15.875 75.5 15.6562 75.4375 15.4688 75.4375C15.2812 75.4375 15.0938 75.5469 14.9062 75.7656C14.75 75.9531 14.6719 76.1719 14.6719 76.4219V76.5156L15.75 89.0781C15.75 89.4844 15.5312 89.9062 15.0938 90.3438C14.6875 90.75 14.2969 91 13.9219 91.0938L10.7344 91.8438L9.51562 92.6406L8.4375 93.1094C8 92.5781 7.78125 92.125 7.78125 91.75V91.2812L8.625 85.6094L8.15625 76.2344L9.14062 76.1406C9.51562 75.6719 9.70312 75.2656 9.70312 74.9219C9.70312 74.8281 9.67188 74.5938 9.60938 74.2188C8.64062 73.75 8.15625 73.2656 8.15625 72.7656C8.15625 72.3906 8.60938 71.3594 9.51562 69.6719C9.45312 69.2656 9.03125 68.9844 8.25 68.8281V67.4688L8.0625 62.9688L7.96875 59.9688L8.15625 56.3594C8.625 56.1094 8.92188 55.875 9.04688 55.6562C9.17188 55.4062 9.23438 54.9688 9.23438 54.3438L8.0625 54.1562L7.875 40.7969C8.65625 40.4531 9.04688 40 9.04688 39.4375C9.04688 38.9375 8.96875 38.4219 8.8125 37.8906L7.875 37.1406V35.125L7.21875 30.0625L7.6875 25.3281L7.21875 23.4062L6.79688 23.125L6.70312 21.7656L6.04688 16.2344L6.14062 10.9375L5.76562 9.67188L6.23438 6.53125L5.85938 5.73438C6.04688 5.35938 6.1875 5.14062 6.28125 5.07812C6.40625 4.98438 6.78125 4.82813 7.40625 4.60938C7.46875 4.54688 8.32812 3.875 9.98438 2.59375L10.9219 1.79688C11.3281 1.79688 11.7812 1.67187 12.2812 1.42188L13.1719 0.765625L13.8281 1.14062V1.89062H13.5469L13.0781 4.42188L13.3594 12.2969L13.1719 16.6094C13.1719 17.6406 13.2969 18.8281 13.5469 20.1719L12.6562 20.9219L12.4688 25.0469L12.8438 25.8906L13.8281 26.0312L13.9219 26.7812L13.8281 29.7344L14.2031 31.75L14.1094 32.6406L14.2969 36.2031L14.1094 42.8125V47.2188V47.3125L13.6406 50.3125V50.875C13.6406 51.4375 13.7031 51.8281 13.8281 52.0469L14.8594 53.8281C14.8906 53.8906 14.9062 53.9531 14.9062 54.0156C14.9375 54.0469 14.9531 54.0938 14.9531 54.1562L14.5781 56.9219V57.3906L14.9531 63.0625V64.2344L14.8594 66.4375L14.4844 69.5781V69.6719C14.4844 70.0781 14.6406 70.75 14.9531 71.6875L15.5625 71.4062L17.6719 69.6719L20.625 67.6562L26.8594 61.2344L32.9062 55.1875L35.8125 51.7188C36.6875 50.6562 38.25 49.4844 40.5 48.2031L41.7656 49.1406C42.6094 49.7344 43.0312 50.2188 43.0312 50.5938C43.0312 51.5 42.3438 52.7188 40.9688 54.25L40.0312 54.5312C39.3438 54.75 38.9062 54.9531 38.7188 55.1406C38.5625 55.2969 38.3594 55.6719 38.1094 56.2656C37.0781 56.2656 36.1562 56.4531 35.3438 56.8281V57.9531C35.3438 58.8281 35.1094 59.4375 34.6406 59.7812L31.875 61.8906L30.6094 62.9688L29.9531 63.0625H29.2031C28.9844 64.0938 28.75 64.7031 28.5 64.8906L26.4844 66.0625L24.8438 67.6562L23.3438 68.8281C22.4375 69.3906 21.9844 70.0312 21.9844 70.75C21.9844 71.5 22.5938 72.2344 23.8125 72.9531C27.3438 75.0469 29.2656 76.4219 29.5781 77.0781L31.0312 80.0781C31.375 80.6094 32.2656 81.1406 33.7031 81.6719L34.9219 80.9219L40.5938 83.4062C41.0625 83.625 41.2969 83.9219 41.2969 84.2969L41.2031 84.8594L43.125 86.0312L43.875 85.3281L45.9844 86.0312L47.25 86.5938H48.5625C48.9062 86.5938 49.3281 86.7188 49.8281 86.9688C50.2656 86.5312 50.6875 86.3125 51.0938 86.3125C51.375 86.3125 51.5781 86.375 51.7031 86.5C51.8594 86.5938 51.9375 86.75 51.9375 86.9688Z" fill="black"/>
</svg>
