<svg width="21" height="149" viewBox="0 0 21 149" fill="none" xmlns="http://www.w3.org/2000/svg">
<path d="M15.375 82.6562L15.1875 85.1406L15.2812 87.0625C15.2812 87.5312 15.0469 87.9219 14.5781 88.2344L14.8594 89.3594L13.8281 89.5469L10.7344 91.4688L9.51562 91.6562L8.0625 92.5469C7.9375 92.5469 7.82812 92.5469 7.73438 92.5469C7.64062 92.5781 7.53125 92.6094 7.40625 92.6406C6.8125 92.6406 6.51562 92.4531 6.51562 92.0781V90.9062L6.23438 88.7969L6.89062 83.6875L7.125 77.1719C7.21875 75.5781 7.5625 74.2656 8.15625 73.2344L7.59375 71.7812C7.0625 70.8125 6.79688 70.25 6.79688 70.0938C6.79688 69.5938 7.1875 68.6875 7.96875 67.375C8.28125 66.9062 8.4375 66.3906 8.4375 65.8281C8.4375 65.3906 7.96875 64.9844 7.03125 64.6094L7.21875 63.8125L6.79688 63.625V62.9688V62.2188L7.59375 58.9375V50.875L8.53125 47.125C8.53125 46.625 8.15625 46.0781 7.40625 45.4844V43.2812L7.21875 34.8438C7.21875 34.2188 7.625 33.1562 8.4375 31.6562L9.14062 30.4375C7.98438 29.9063 7.40625 29.4219 7.40625 28.9844C7.40625 29.1094 7.5 28.5 7.6875 27.1562L6.70312 26.3125V24.4844L6.51562 22.2812V21.8594L7.3125 19.4688L6.51562 16.1406L6.70312 14.5L5.76562 9.01562V8.54688V8.26562L6.14062 6.71875L6.42188 4.79688L10.6406 2.5L12.5625 1.04688L13.3594 0.859375L14.0156 1.89062L14.1094 3.90625L14.4844 5.26562L14.5781 6.0625V7.1875L14.2969 10.6562V10.9375L14.3906 12.5781C14.3906 13.1406 14.3281 13.5469 14.2031 13.7969L13.0781 16.2344L12.9375 17.1719C13.5625 17.2031 13.9531 17.3125 14.1094 17.5C14.2969 17.6562 14.3906 18.0938 14.3906 18.8125V19.8438C14.3906 20.4687 14.0156 20.9844 13.2656 21.3906V22.5625L13.1719 23.5V23.875L14.0156 25.2344L13.6406 34.1875V40.6094L12.375 43.0938L13.0781 46.6562L12.0938 48.9531C12.1875 49.2344 12.4688 49.5938 12.9375 50.0312L13.7344 50.875L14.1094 66.0625L12.9375 67.375C13.0312 67.9688 13.0781 68.6094 13.0781 69.2969C13.0781 70.3906 12.9375 71.4219 12.6562 72.3906L13.0781 73.4219H14.3906V75.1562L15.375 82.6562Z" fill="black"/>
</svg>
