<svg width="68" height="148" viewBox="0 0 68 148" fill="none" xmlns="http://www.w3.org/2000/svg">
<path d="M62.8594 87.6094L61.6406 88.2656L59.25 89.5312L56.7188 91.3594C56.5312 91.4219 56.3125 91.4531 56.0625 91.4531C55.8438 91.4531 55.3906 91.3906 54.7031 91.2656L54.5156 88.9219L54.7031 87.7031L55.4062 85.5L54.8906 80.8594L55.3125 78.2812L55.4062 75.8906L56.3438 73.5938V73.3125C56.3438 72.875 56.0625 72.4531 55.5 72.0469L55.4062 70.9688L55.2188 66.1875C55.2188 65.8125 55.25 65.5625 55.3125 65.4375L56.4375 62.0625L55.2188 60.2344L54.5156 55.9219L54.1406 54.75L53.2969 54.375L51.1875 53.0625C50.8438 52.8438 50.1406 52.7344 49.0781 52.7344C47.5469 52.7344 46.25 52.8438 45.1875 53.0625C44.1562 53.2812 42.9219 53.7188 41.4844 54.375C39.2969 55.5 38.2031 56.4688 38.2031 57.2812V60.6094L36.9375 61.5C36.9375 61.5625 36.9219 61.6094 36.8906 61.6406C36.8906 61.6719 36.875 61.7188 36.8438 61.7812C36.8438 62.3438 37.2656 62.8906 38.1094 63.4219L38.4844 74.1562C37.9844 74.4062 37.6719 74.5312 37.5469 74.5312C37.5781 74.5312 37.3125 74.4688 36.75 74.3438L36.8438 75.4219L38.2031 78.0938L37.9219 79.7344L38.1094 80.6719C38.3281 81.4219 38.5469 82.5625 38.7656 84.0938C38.9844 85.625 39.0938 86.7969 39.0938 87.6094C39.0938 87.7031 39.0156 87.8281 38.8594 87.9844L38.2031 88.3594L36.4688 89.625L33.7031 90.75L32.8125 91.1719C32.6562 91.1719 32.2812 90.9375 31.6875 90.4688V89.9062L32.0625 85.125L31.875 80.9531C31.875 80.3281 31.9531 79.875 32.1094 79.5938C32.2969 79.2812 32.6719 78.9375 33.2344 78.5625L33.3281 77.625L32.5312 76.0781L32.3438 74.9062L31.5938 73.5938L31.7812 72.2344L31.875 68.3906L33.4219 66.4688C33.4844 66.3438 33.5156 66.1562 33.5156 65.9062C33.5156 65.0625 33.2188 64.6406 32.625 64.6406C32.375 64.6406 32.1875 64.6719 32.0625 64.7344L31.5938 63.7969V62.625L31.6875 60.7031V59.7188C31.6875 55.7812 30.6562 53.8125 28.5938 53.8125C28.25 53.8125 27.75 53.9375 27.0938 54.1875L26.1094 52.7344L24.9375 53.0625L24.0938 53.7188L21.7969 54L19.5 54.9375L17.6719 55.1719L16.5938 55.6406L16.0312 56.6719C15.1562 58.3594 14.5938 59.6562 14.3438 60.5625C14.125 61.4688 14.0156 62.5781 14.0156 63.8906V64.6406L14.2031 71.1094L14.1094 72.2344L12.8438 72.7031L13.0781 73.6875L14.1094 75.2344L14.0156 80.0156L14.6719 88.4531C14.6406 88.5781 14.5156 88.7656 14.2969 89.0156C14.0781 89.2656 13.7656 89.5 13.3594 89.7188L10.2656 91.2656C9.98438 91.4531 9.57812 91.5469 9.04688 91.5469C8.64062 91.5469 8.15625 91.4531 7.59375 91.2656V90.0938V88.8281L7.6875 84.1406L7.40625 82.2188L8.15625 80.8594L8.4375 79.6406L7.59375 78.9375L7.5 77.8125V77.1562L7.6875 76.4531L8.53125 75.2344L8.90625 74.25V73.2188C8.34375 73.1562 7.95312 72.9531 7.73438 72.6094C7.54688 72.2344 7.45312 71.375 7.45312 70.0312C7.45312 69.0938 7.46875 68.3281 7.5 67.7344L7.59375 65.4375V64.4531L8.34375 64.3594L8.4375 62.25L8.25 60.7031L7.5 58.9688L7.125 55.4531L6.70312 53.625L6.51562 52.3594L6.14062 52.7344L5.10938 51.7969C5.67188 50.7656 6.42188 49.9062 7.35938 49.2188C8.32812 48.5 9.8125 47.75 11.8125 46.9688C12.625 47.6875 13.1406 48.25 13.3594 48.6562C13.6094 49.0625 13.7344 49.6562 13.7344 50.4375L13.6406 52.1719L13.5469 54.0938L15.2812 53.7188L17.1094 51.7969L18.4219 51.3281L20.3438 49.7812L25.5469 48.0469L26.2969 47.6719L27.375 47.2969C27.875 47.8281 28.125 48.5 28.125 49.3125L28.9688 49.5938L29.7656 49.3125V48.1406C30.6094 47.5781 31.1875 47.2969 31.5 47.2969C31.5625 47.2969 31.7812 47.3594 32.1562 47.4844L32.5312 47.2031C32.875 47.1406 33.2031 47.1094 33.5156 47.1094C34.5156 47.1094 35.3594 47.4844 36.0469 48.2344C36.7344 48.9531 37.2031 49.9844 37.4531 51.3281C37.5469 51.7969 37.6562 52.1406 37.7812 52.3594C37.9062 52.5469 38.1719 52.7344 38.5781 52.9219L39.375 52.2656L40.875 50.7188L42.7031 49.7812L45.2344 48.2344L46.3594 47.9531H46.4531L48.4688 48.0469L50.2969 47.4844H53.1094L54.7031 47.2969L56.3438 47.9531L58.2656 48.4219C60.0469 48.8281 60.9375 49.8594 60.9375 51.5156C60.4375 51.9219 60.1875 52.2969 60.1875 52.6406C60.1875 52.7656 60.2656 52.9062 60.4219 53.0625C60.6094 53.1875 60.7812 53.25 60.9375 53.25C61.1562 53.25 61.3906 53.1875 61.6406 53.0625L61.8281 54.0938L62.0156 56.6719L62.4844 57.8438L62.5781 58.5938L62.3906 61.6875L62.2969 64.3594V65.4375L61.7344 66.2812C61.4219 66.8125 61.2656 67.1719 61.2656 67.3594L61.8281 72.4219L62.0156 73.9688V74.0625L61.9219 77.25L62.0156 77.3438L62.2031 78.9375C62.1094 79.2188 61.7656 79.5469 61.1719 79.9219V81.5625L62.0156 81.2812L62.2031 82.3125V85.5938L62.8594 87.6094Z" fill="black"/>
</svg>
