<svg width="53" height="148" viewBox="0 0 53 148" fill="none" xmlns="http://www.w3.org/2000/svg">
<path d="M47.625 86.8125L47.1562 88.1719L40.6875 91.2656C39.8125 90.1406 39.375 89.4375 39.375 89.1562V88.9219L40.5 84.4219L40.5938 82.4062L40.9688 82.5L41.7656 81.5625C41.5469 81.0625 41.3281 80.7344 41.1094 80.5781C40.9219 80.4219 40.5625 80.2344 40.0312 80.0156L39.8438 79.2656L40.5938 70.5L40.125 69.2812L40.2188 67.7344V64.1719L40.7812 62.4375L39.9375 61.5938L40.0312 58.7812C39.6875 57.75 39.1094 56.7656 38.2969 55.8281V55.3594C38.2969 54.9531 38.1719 54.6562 37.9219 54.4688L36.75 54.375L34.3594 52.9219L30.5156 53.1562L26.1094 52.8281C25.7344 53.0156 25.3125 53.4062 24.8438 54L24 53.8125L20.3438 54.4688L19.0312 54.75L17.3906 56.0156L15.2812 56.9531C14.25 57.4531 13.6719 58.2031 13.5469 59.2031L13.4531 63.7969L12.8438 66.6562L13.8281 69.4688V70.9688L13.7344 76.5469L12.8438 78.4688L12.75 79.1719V79.4531L13.6406 80.9531L13.9219 86.0625L14.2969 87.7031C14.2969 87.8906 14.2031 88.1406 14.0156 88.4531C13.8281 88.7344 13.5781 88.9375 13.2656 89.0625L10.1719 89.8125L9.32812 90C8.82812 90.8438 8.34375 91.2656 7.875 91.2656C7.5625 91.2656 7.23438 91.0938 6.89062 90.75C6.85938 90.6875 6.8125 90.625 6.75 90.5625C6.71875 90.5 6.67188 90.4375 6.60938 90.375C6.48438 90.125 6.42188 90.0312 6.42188 90.0938L7.125 86.625L7.03125 82.6875L7.5 81.0938L7.125 78.4688L7.3125 75.6094L7.40625 69.5625C7.40625 68.75 7.95312 68.2969 9.04688 68.2031C8.95312 67.5156 8.78125 67.0938 8.53125 66.9375C8.3125 66.75 7.8125 66.6562 7.03125 66.6562L7.125 58.2188L8.15625 57.5625L7.59375 56.5781L6.32812 53.1562L5.48438 52.0781L6.04688 51.0469L7.03125 49.875L8.71875 49.125L10.3594 47.8594C10.8281 47.4844 11.4062 47.2969 12.0938 47.2969C12.5 47.2969 12.8906 47.4219 13.2656 47.6719C13.6406 47.8906 13.8594 48.1406 13.9219 48.4219L14.0156 52.8281L14.2031 54.2812L15.0938 54C16.2188 52.625 17.5312 51.3438 19.0312 50.1562C20.5625 48.9375 21.7031 48.3281 22.4531 48.3281C22.8594 48.3281 23.1875 48.6562 23.4375 49.3125C24.0625 49.125 24.7969 48.7656 25.6406 48.2344C26.5469 47.7344 27.3125 47.4844 27.9375 47.4844H28.2188L32.0625 47.8594L33.5156 47.3906L37.8281 47.9531C39.2969 48.1406 40.4531 48.6562 41.2969 49.5L41.9531 49.4062C42.9531 49.4062 43.7812 49.8438 44.4375 50.7188L45.1406 51.8906L46.0781 53.4375C46.5156 53.9688 46.7344 55.1094 46.7344 56.8594V59.4844L46.9219 60.6094L45.7969 62.0625L46.1719 63.2344L46.7344 64.2656V65.3438V66.1875C46.7344 66.4375 46.7031 66.625 46.6406 66.75L45.9844 68.1094C45.8594 68.3594 45.7969 68.8125 45.7969 69.4688L46.7344 70.6875L46.6406 72.0469L46.5469 75.3281V75.7031L47.25 77.5312L47.3438 81.75L47.625 86.8125Z" fill="black"/>
</svg>
