<svg width="58" height="148" viewBox="0 0 58 148" fill="none" xmlns="http://www.w3.org/2000/svg">
<path d="M54.8906 66.1875L53.8594 66L54.0469 67.0781L52.9688 67.8281C53.125 68.3906 53.25 68.7344 53.3438 68.8594C53.4688 68.9844 53.7656 69.1875 54.2344 69.4688L54.3281 70.4062C54.3281 73.8125 53.0156 77.5 50.3906 81.4688C49.7969 82.3438 49.0625 83.2656 48.1875 84.2344C47.3125 85.2031 46.7656 85.8438 46.5469 86.1562L45.1406 86.5312L36.2812 90.6562L31.4062 90.8438L27.8438 91.7344L23.625 91.6406L22.1719 92.0156L17.9531 91.2656L16.2188 91.1719L15.2812 90.0938L12.6562 89.7188L11.4375 89.0625C10.375 88.25 9.48438 87.5781 8.76562 87.0469C8.04688 86.4844 7.57812 86.125 7.35938 85.9688C7.17188 85.7812 7.01562 85.5938 6.89062 85.4062L5.85938 83.3906L4.40625 82.2188L3.28125 79.2656L2.85938 78.0938L3.375 77.7188C3.375 77.2812 3.4375 76.9844 3.5625 76.8281C3.6875 76.6719 3.96875 76.5156 4.40625 76.3594L4.125 75.6094L2.57812 74.625V72.7031C2.57812 71.3594 2.73438 70.0312 3.04688 68.7188C3.35938 67.4062 3.90625 65.8906 4.6875 64.1719C5.90625 61.4219 6.8125 59.8594 7.40625 59.4844L9.32812 58.2188L10.3594 56.3906C10.7344 55.7344 11.1875 55.2969 11.7188 55.0781L16.125 52.7344L18.6094 50.7188L21.6094 49.5938L26.8594 47.7656L31.2188 47.3906L34.6406 47.2969C36.5781 47.2969 37.5469 47.8281 37.5469 48.8906C38.0781 49.3594 38.4219 49.5938 38.5781 49.5938C39.0469 49.5938 39.5625 49.1406 40.125 48.2344L41.2969 48.5156L44.3438 49.5938L45.6094 50.625L47.3438 51.7031L49.0781 54.375C49.5469 54.9688 50.4688 55.2656 51.8438 55.2656C52.75 56.3906 53.3594 57.5 53.6719 58.5938C53.9844 59.6875 54.3281 61.7031 54.7031 64.6406L54.8906 66.1875ZM48.0938 67.3594L46.3594 61.9688L46.0781 59.5781L45.6094 58.6875H45.3281C45.0781 58.6875 44.875 58.6406 44.7188 58.5469C44.5625 58.4531 44.375 58.2812 44.1562 58.0312L41.8594 55.1719L41.1094 54L37.1719 52.1719C36.7969 51.5469 36.4688 51.0938 36.1875 50.8125C35.9375 50.5 35.625 50.3438 35.25 50.3438C34.8438 50.3438 34.2031 50.5 33.3281 50.8125C32.4531 50.4375 31.8125 50.25 31.4062 50.25L30.0469 50.4375L27.75 50.5312L24.5625 51.7031L23.8125 51.0469L23.25 51.7969L20.0625 53.7188L14.2031 58.7812L13.0781 59.7656C12.8281 61.3594 12.1094 63.1875 10.9219 65.25L10.2656 66.375V66.75C10.2656 67.4375 10.1562 67.8906 9.9375 68.1094C9.71875 68.3281 9.28125 68.4844 8.625 68.5781C8.5 69.0781 8.4375 69.3125 8.4375 69.2812C8.46875 69.3438 8.48438 69.4062 8.48438 69.4688C8.51562 69.5 8.53125 69.5312 8.53125 69.5625L9.98438 71.2031L10.1719 72.2344C9.20312 73.0469 8.71875 73.5938 8.71875 73.875C8.71875 73.875 8.78125 74.0625 8.90625 74.4375C9.1875 74.125 9.45312 73.9688 9.70312 73.9688C9.98438 73.9688 10.1719 74.0625 10.2656 74.25L11.3438 77.7188L13.7344 81.6562L13.4531 84.0469C13.7031 84.2969 13.9844 84.4219 14.2969 84.4219C14.6719 84.4219 15.0625 84.2344 15.4688 83.8594L16.4062 84.1406L22.0781 87.6094L27.8438 88.1719L31.125 88.6406L34.8281 87.9844L37.2656 87.4219L40.3125 84.3281L42.5156 83.6719L43.5938 82.5L46.0781 77.3438L47.3438 76.2656C47.7812 75.8281 48 75.4531 48 75.1406V74.9062L47.25 72.7031L48.0938 67.3594Z" fill="black"/>
</svg>
