<svg width="59" height="148" viewBox="0 0 59 148" fill="none" xmlns="http://www.w3.org/2000/svg">
<path d="M56.4375 70.6875L55.5 73.2188L55.0312 74.3438L53.6719 76.0781L52.6875 77.9062L51.4688 79.1719L50.5781 80.2969L49.9219 80.4844L48.6562 80.2031L48.1875 81.0938C47.375 82.5625 46.75 83.4844 46.3125 83.8594C45.9062 84.2344 45.1562 84.4219 44.0625 84.4219H43.9688L43.2188 84.3281C43.0938 85.3906 42.6406 86.2969 41.8594 87.0469C41.1094 87.7656 39.8594 88.4375 38.1094 89.0625L35.5312 89.9062L33.4219 90.6562L29.2031 90.75L28.0312 90.9375L26.8594 91.7344C26.1719 91.3594 25.6719 91.1562 25.3594 91.125C25.0469 91.0938 24.0469 91 22.3594 90.8438L21.2344 90.75L21.4219 89.625L20.3438 89.4375L19.4062 90L18.6094 90.375H17.2969H15.1875L14.2969 90.0938L14.0156 91.2656L14.2031 98.25L13.5469 101.438L13.4531 102.75H14.2031L14.4844 111.422L13.3594 111.609L13.0781 112.359L13.2656 113.531L13.8281 116.016L13.5469 117.094L14.2031 116.578L14.6719 116.859L14.7656 120.047L15.0938 123.141L15.2812 125.25C15.2812 125.844 14.7969 126.188 13.8281 126.281L13.5469 126.938L15.1875 127.359L15.0938 128.297L15.5625 130.594L15.75 132.141L15.1875 133.031L14.0156 133.969L13.0781 135.516L11.9062 135.891L9.42188 137.062L8.625 137.156L6.89062 137.062L6.79688 135.328L6.89062 133.781L7.21875 129.844L7.125 125.906C7.15625 125.5 7.23438 125.172 7.35938 124.922C7.48438 124.672 7.75 124.391 8.15625 124.078L7.6875 121.031C8.28125 120.438 8.64062 120.016 8.76562 119.766C8.92188 119.516 9.01562 119.094 9.04688 118.5C8.51562 118.312 8.15625 118.125 7.96875 117.938C7.8125 117.75 7.6875 117.469 7.59375 117.094L7.96875 115.359L7.78125 114.094L7.6875 109.125L7.5 105.375L7.96875 100.922L8.0625 99.7031C8.78125 99.0156 9.14062 98.3438 9.14062 97.6875C9.14062 97.1562 9 96.3281 8.71875 95.2031L7.6875 94.875L7.21875 93.2812V92.5781L7.78125 76.9219L8.34375 75.2344L8.15625 73.5L7.96875 72.2344L7.125 71.9531V70.6875L6.89062 63.7969V63.0469L7.21875 61.125L6.70312 57.1875C6.70312 56.0938 6.625 55.4219 6.46875 55.1719C6.34375 54.8906 5.89062 54.5312 5.10938 54.0938C5.20312 53.0938 5.39062 52.4531 5.67188 52.1719L6.60938 51.6094L8.8125 49.125L10.8281 47.9531L12 47.3906C12.5938 47.4531 13.3281 47.8594 14.2031 48.6094L14.0156 49.5L13.8281 50.9062L13.9219 51.7031L14.7656 51.7969L16.4062 50.9062C18.3125 49.9375 19.7031 49.2969 20.5781 48.9844C21.4844 48.6719 22.4375 48.5156 23.4375 48.5156C23.9688 48.5156 24.375 48.5938 24.6562 48.75C24.9688 48.875 25.2656 49.0938 25.5469 49.4062L26.3906 48.7969L26.8594 48.2344L28.0312 47.9531L29.9531 47.5781L35.25 47.6719L39.75 47.5781C40.3438 47.5781 41.0469 48.0625 41.8594 49.0312C41.9844 49 42.1094 48.9688 42.2344 48.9375C42.3594 48.9062 42.4531 48.8906 42.5156 48.8906C42.7656 48.8906 43.3125 49.125 44.1562 49.5938L47.625 51.3281C48.25 51.5781 48.6562 51.8594 48.8438 52.1719L49.6406 54C49.7969 54.25 50.0781 54.375 50.4844 54.375C50.8594 54.375 51.2812 54.2812 51.75 54.0938C52.6875 54.8125 53.4844 55.7344 54.1406 56.8594C54.5781 57.6406 55.0469 59.0469 55.5469 61.0781C56.0781 63.0781 56.3438 64.5938 56.3438 65.625V65.8125L56.0625 67.3594L55.9688 68.6719L56.4375 70.6875ZM50.3906 66.4688C49.2344 65.875 48.5312 65.1719 48.2812 64.3594L47.5312 62.1562L45.1406 58.5938L44.9062 56.6719L44.25 56.0156L41.7656 56.1094L38.0156 53.625L35.3438 53.3438L32.8125 52.4531L26.0156 52.5469H24.9375L23.625 52.7344L19.7812 53.8125L17.8594 54.1875L16.3125 54.8438L15.1875 55.1719C14.4688 55.4219 14.1094 56.3438 14.1094 57.9375V58.5C13.2031 60.4375 12.75 61.5 12.75 61.6875C12.75 61.875 12.7812 62 12.8438 62.0625L13.0781 62.4375L14.0156 62.8125L13.8281 65.1562L14.0156 70.5C14.0156 70.9062 13.7344 71.6094 13.1719 72.6094C13.8594 74.1406 14.2031 75.4531 14.2031 76.5469L14.0156 80.8594L13.9219 82.5L15.2812 83.2031L17.6719 84.2344L19.5938 85.6875L20.1562 84.8906L21.4219 85.4062L25.4531 85.6875L28.875 87.0469L32.7188 86.4375L35.1562 86.5312L36.9375 85.7812L38.8594 84.8906L41.2031 83.2031L43.0312 82.0312L44.7188 79.9219L46.7344 78.4688C47.8906 77.7188 48.5312 76.9531 48.6562 76.1719L48.8438 74.3438L50.0156 72.0469C50.0469 71.9844 50.0625 71.9375 50.0625 71.9062C50.0938 71.8438 50.1094 71.7969 50.1094 71.7656L49.9219 68.0156L49.8281 66.9375L50.3906 66.4688Z" fill="black"/>
</svg>
