<svg width="39" height="148" viewBox="0 0 39 148" fill="none" xmlns="http://www.w3.org/2000/svg">
<path d="M38.9531 50.7188C38.9531 50.875 38.8906 51.0156 38.7656 51.1406L36.0938 53.25L34.6406 54.75L33.7969 55.0781L32.5312 54.2812L31.6875 53.4375L28.875 53.3438L26.2031 52.2656L25.1719 51.9844C24.7656 52.6719 24.3438 53.1094 23.9062 53.2969C23.4688 53.4531 22.5781 53.5312 21.2344 53.5312L19.6875 54.1875L18.5156 53.8125L17.5781 54.5625L13.8281 57.4688C13.2031 58.2812 12.8438 59.7812 12.75 61.9688L12.6562 65.5312L11.625 66.1875C12.25 67.25 12.5625 68.2812 12.5625 69.2812H13.2656L13.3594 70.5938L13.5469 76.6406L13.6406 79.8281L13.4531 82.6875C12.4844 83.25 12 83.7031 12 84.0469C12 84.1094 12.125 84.3906 12.375 84.8906L13.6406 84.6094L13.5469 85.0312L13.9219 86.9062V87.1406C13.9219 87.6094 13.6719 88.0938 13.1719 88.5938C12.6719 89.0938 12.1562 89.375 11.625 89.4375L9.79688 89.625L7.03125 91.0781L5.85938 90.375L6.04688 89.4375L6.70312 86.7188L6.42188 83.1094L6.70312 82.5938H7.6875V82.0312L7.59375 81.1875L7.03125 79.8281L6.89062 77.9062L6.51562 76.2656V76.1719V74.9062L6.60938 73.4062C6.73438 73.25 6.85938 73.0938 6.98438 72.9375C7.14062 72.75 7.32812 72.4844 7.54688 72.1406C7.79688 71.7969 8.0625 71.375 8.34375 70.875L8.8125 69.75L8.71875 69.2812C7.25 69.2812 6.51562 68.9531 6.51562 68.2969L6.70312 64.7344L6.42188 61.2188C6.51562 60.9062 6.71875 60.6094 7.03125 60.3281V58.9688L6.42188 58.4062L6.23438 57.2812L6.14062 54.75L5.10938 52.7344C5.32812 51.6094 5.82812 50.6562 6.60938 49.875L9.51562 48.3281L11.25 47.2031C12.125 47.4531 12.7188 47.75 13.0312 48.0938C13.375 48.4375 13.5469 49 13.5469 49.7812V50.0625V51.3281C13.5469 52.4844 13.7969 53.0625 14.2969 53.0625H14.4844L16.875 51.7969L19.2188 50.9062L23.25 48.7031L24.5625 48.1406L25.6406 48.4219L27.75 47.7656C28.9688 47.3906 29.8906 47.2031 30.5156 47.2031L32.5312 47.3906C33.1562 48.2656 33.6719 48.7031 34.0781 48.7031C34.1406 48.6719 34.1875 48.6562 34.2188 48.6562C34.25 48.625 34.2969 48.6094 34.3594 48.6094L35.4375 48.0469C35.6875 47.9219 35.875 47.8594 36 47.8594C36.7812 47.8594 37.5156 48.2812 38.2031 49.125C38.7031 49.7188 38.9531 50.25 38.9531 50.7188Z" fill="black"/>
</svg>
