<svg width="46" height="148" viewBox="0 0 46 148" fill="none" xmlns="http://www.w3.org/2000/svg">
<path d="M42.3281 76.2656C42.3281 77.5156 42.0938 78.5625 41.625 79.4062C41.1875 80.25 40.6562 80.6719 40.0312 80.6719C39.9062 80.6719 39.5938 80.6094 39.0938 80.4844L38.4844 81.5625L37.6406 83.8594L35.5312 86.1562L34.5469 87.5156L33.2344 87.6094L28.875 89.8125L26.8594 90.0938L23.4375 91.2656L20.7188 90.75L16.5938 91.7344C16.3125 91.7344 14.7812 91.4375 12 90.8438C10.6875 90.5625 9.85938 90.2812 9.51562 90L7.6875 88.8281L5.39062 87.5156C4.42188 86.8906 3.625 86.0938 3 85.125C2.40625 84.125 2.10938 83.2188 2.10938 82.4062C2.10938 81.9062 2.64062 81.2344 3.70312 80.3906C4.76562 79.5156 5.9375 78.7812 7.21875 78.1875L8.25 79.5469L9.14062 83.6719L10.8281 84.7031L13.5469 86.8125L14.8594 87.2344L17.3906 88.4531H19.125L20.25 88.6406L22.5469 87.9844L26.3906 87.6094L28.3125 86.625L30.1406 85.9688C31.2969 85.2812 32.4219 83.875 33.5156 81.75C34.6094 79.5938 35.1562 77.6406 35.1562 75.8906C35.1562 75.2344 34.9531 74.6562 34.5469 74.1562L32.7188 71.5781L32.25 70.4062L31.125 69.8438L30.5156 70.5938L29.4844 70.5L26.9531 70.125H24H23.25L21.9844 68.2969C21.3281 69.0469 20.7969 69.5312 20.3906 69.75C19.9844 69.9375 19.2031 70.125 18.0469 70.3125L16.4062 70.5938L15.4688 70.125H14.2969L13.0781 69.1875L11.5312 69.4688L10.0781 68.7656L8.0625 68.1094C7.28125 67.8594 6.60938 67.25 6.04688 66.2812C5.48438 65.3125 5.20312 64.3281 5.20312 63.3281C5.20312 61.7969 5.73438 60.1719 6.79688 58.4531C7.85938 56.7344 9.34375 55.1562 11.25 53.7188C12.7188 52.5938 14.4688 51.4844 16.5 50.3906C18.5312 49.2969 20.4375 48.4531 22.2188 47.8594C24.0312 47.2656 25.5156 46.9688 26.6719 46.9688C27.0156 46.9688 28.2031 47.2969 30.2344 47.9531L31.5938 48.4219C33.7188 48.0469 35.0938 47.8594 35.7188 47.8594C36.5938 47.8594 37.2812 48 37.7812 48.2812C38.3125 48.5625 38.5781 48.9062 38.5781 49.3125C38.5781 49.7188 38.125 50.2969 37.2188 51.0469C36.3438 51.7656 35.2344 52.4375 33.8906 53.0625L32.4375 53.7188L31.2188 53.625L28.875 53.5312L27.0938 53.0625L26.2969 51.4219H25.6406L24.8438 52.2656H23.4375H22.0781L20.1562 52.5469L18.7031 52.1719L17.9531 52.7344L14.9531 54.4688C12.8594 56.2812 11.8125 57.9219 11.8125 59.3906C11.8125 60.4219 12.125 61.0938 12.75 61.4062L15.8438 62.8125L16.7812 63.3281V64.4531L18.2344 65.25L19.7812 63.7969L20.5312 63.8906L28.4062 63.3281L32.1562 64.1719L33.8906 63.8906L36.0938 65.3438L39.375 67.1719C40.0312 67.6094 40.6094 68.5938 41.1094 70.125L41.4844 71.3906C42.0469 73.3594 42.3281 74.9844 42.3281 76.2656Z" fill="black"/>
</svg>
