<svg width="36" height="148" viewBox="0 0 36 148" fill="none" xmlns="http://www.w3.org/2000/svg">
<path d="M35.8125 49.125L35.3438 50.4375L35.25 51.4219L31.875 53.9062L29.8594 55.7344L28.6875 55.9219L26.9531 55.7344C25.7969 55.6094 24.7344 55.4375 23.7656 55.2188C22.8281 54.9688 22.3906 54.8438 22.4531 54.8438H22.3594L19.2188 55.0781L17.3906 54.75C16.9531 54.8125 16.5781 54.9844 16.2656 55.2656C15.9844 55.5156 15.8438 55.7969 15.8438 56.1094C15.8438 56.4531 16.0312 56.6719 16.4062 56.7656L16.3125 62.8125C14.9688 63.1875 14.2969 63.7656 14.2969 64.5469L14.3906 65.625L16.3125 66L16.5 70.5L16.5938 71.4844L16.125 72.8906C15.75 72.7031 15.4375 72.6094 15.1875 72.6094C14.4062 72.6094 14.0156 72.9688 14.0156 73.6875C14.0156 74 14.2656 74.4844 14.7656 75.1406C15.2031 74.6094 15.5 74.3438 15.6562 74.3438C15.75 74.3438 16.0625 74.5781 16.5938 75.0469L16.6875 81.375L16.875 82.3125L17.9531 84.5156C18.0156 84.7031 18.0469 85.25 18.0469 86.1562C18.8281 86.625 19.4219 86.9219 19.8281 87.0469C20.2656 87.1719 20.8594 87.2344 21.6094 87.2344C22.6094 87.2344 23.5938 87.0625 24.5625 86.7188C25.5625 86.375 26.3594 85.9375 26.9531 85.4062L31.5938 81.1875C31.7812 80.9688 32.0312 80.8594 32.3438 80.8594C32.7188 80.8594 33.2656 81.0625 33.9844 81.4688L33.7031 82.5C33.0469 85.0938 32.5 86.4688 32.0625 86.625L21.0469 90.6562L19.125 91.6406L17.6719 90.75L16.6875 90.5625L16.2188 91.8281L15.375 91.9219C14.4375 91.9219 13.3438 91.4688 12.0938 90.5625C10.7812 89.5 10.0781 88.7031 9.98438 88.1719L9.70312 86.8125L9.14062 85.2188L9.23438 82.5938V79.6406L10.1719 76.5469L9.89062 75.4219L9.70312 73.7812V72.7031L9.89062 68.2031L9.79688 66.9375L9.60938 65.3438C9.60938 65.2188 9.64062 65.1562 9.70312 65.1562L10.9219 63.7031C11.0781 63.4844 11.1562 63.2969 11.1562 63.1406C11.1562 62.4219 10.6094 62.0625 9.51562 62.0625L9.14062 61.5C9.45312 59.2188 9.60938 56.9375 9.60938 54.6562C8.10938 54.3438 6.98438 54.1875 6.23438 54.1875C4.29688 54.1875 2.34375 54.5156 0.375 55.1719C0.125 54.9531 0 54.7188 0 54.4688C0 53.9375 0.125 53.5938 0.375 53.4375L2.20312 51.8906L2.48438 50.8125C2.57812 50.5625 2.73438 50.3594 2.95312 50.2031C3.17188 50.0469 3.34375 49.9688 3.46875 49.9688L8.90625 49.7812L10.1719 49.5938L10.0781 48.5156L9.79688 38.5312L8.625 35.8594L8.34375 34.4062C9.28125 33.0938 10.2188 32.1562 11.1562 31.5938C12.0938 31.0312 13.2969 30.625 14.7656 30.375C15.3906 29.4062 15.9375 28.9219 16.4062 28.9219C17.25 28.9219 17.6719 30.3437 17.6719 33.1875C17.6719 37.5 17.2812 40.5625 16.5 42.375C16.0625 43.6562 15.625 44.2969 15.1875 44.2969V46.5C15.6562 46.5 15.9688 46.5469 16.125 46.6406C16.2812 46.7031 16.4688 46.8906 16.6875 47.2031L16.4062 48.5156L16.5938 49.5938L17.5781 49.6875L22.2656 50.7188C22.6406 50.8438 23.1562 50.9062 23.8125 50.9062C24.5 50.9062 24.9844 50.8438 25.2656 50.7188L27.0938 50.1562L30.6094 49.7812L33.3281 48.7969H34.2656H34.6406H35.7188C35.7812 49.0469 35.8125 49.1562 35.8125 49.125Z" fill="black"/>
</svg>
