<svg width="54" height="148" viewBox="0 0 54 148" fill="none" xmlns="http://www.w3.org/2000/svg">
<path d="M48.4688 87.1406C48.25 87.9531 47.7812 88.5156 47.0625 88.8281L41.6719 91.1719C40.7031 90.6094 40.2188 89.7031 40.2188 88.4531L40.3125 85.7812L39.4688 85.5938L36.375 87.0469L32.0625 89.1562L30.3281 90L24.6562 91.0781L22.8281 91.6406H22.3594C22.0469 91.6406 21.8281 91.6094 21.7031 91.5469L19.9688 90.8438L17.8594 91.4531L15.9375 89.8125L12.1875 90.375C11.8125 90.2188 11.2656 89.9375 10.5469 89.5312C9.82812 89.125 9.21875 88.6719 8.71875 88.1719C7.3125 86.6094 6.60938 85.0156 6.60938 83.3906C6.60938 82.8906 6.9375 82.375 7.59375 81.8438L6.04688 81.2812L5.95312 79.4531L5.85938 76.9219C5.85938 76.1719 5.98438 75.5469 6.23438 75.0469L7.125 73.4062L6.23438 70.7812L6.32812 68.0156L6.23438 64.8281C6.26562 64.6406 6.59375 63.5625 7.21875 61.5938V60.8906L6.32812 61.3125L5.76562 60.7031V59.7656L5.85938 54.0938C5.85938 53.2188 5.76562 52.5469 5.57812 52.0781L5.20312 51.5156C5.20312 51.4531 5.1875 51.4062 5.15625 51.375C5.15625 51.3125 5.14062 51.2656 5.10938 51.2344C5.10938 50.7031 5.48438 50.2188 6.23438 49.7812L6.79688 49.5L10.2656 48.0469C11.3906 47.6094 12.1562 47.3906 12.5625 47.3906C13.0312 47.3906 13.4531 47.8281 13.8281 48.7031L14.2969 49.7812C13.6719 51.5312 13.3594 53.1562 13.3594 54.6562L13.6406 57.375L13.5469 58.5L12.75 60.7969C12.7188 61.6406 12.6875 62.2344 12.6562 62.5781C12.625 62.8906 12.5938 63.1719 12.5625 63.4219C12.5625 63.8906 12.6562 64.3594 12.8438 64.8281L13.6406 66.1875L12.5625 69.75L12.9375 70.875L12.5625 72.8906L12.1875 75.6094C12.1875 75.8594 12.2188 76.0469 12.2812 76.1719L12.9375 77.3438L13.2656 82.3125C13.4531 83.2188 13.8438 83.8594 14.4375 84.2344C15.0625 84.6094 16.3281 85.0938 18.2344 85.6875L21.7031 86.625C22.3281 86.75 23.375 86.8125 24.8438 86.8125C25.9062 86.8125 26.6875 86.7188 27.1875 86.5312L29.8594 85.5L32.7188 86.25C33.2188 86.0938 33.5469 85.5781 33.7031 84.7031L35.25 83.8594L37.3594 80.9531L39.0938 79.5469C39.5625 78.9219 39.8438 78.0469 39.9375 76.9219L40.3125 72.1406L40.6875 71.1094L39.6562 70.0312L39.75 68.2969L39.9375 60.8906L39.6562 58.4062L39.1875 55.5469C39.1875 55.0781 39.4688 54.5625 40.0312 54L39.8438 53.1562L39.0938 53.0625L38.8594 51.6094V51.2344L39.2812 49.7812V48.7969L40.0312 49.0312L45.2344 47.2031C45.2656 47.2031 45.2969 47.1875 45.3281 47.1562C45.3594 47.125 45.3906 47.1094 45.4219 47.1094C45.7656 47.1094 46.0469 47.4062 46.2656 48C46.5156 48.5625 46.6406 49.3125 46.6406 50.25L46.2656 59.7656L45.6094 67.0781L44.3438 66.5625C43.9688 67.4375 43.7812 68.0469 43.7812 68.3906L44.0625 69.375C44.4375 69.25 44.7188 69.1875 44.9062 69.1875C45.1875 69.1875 45.4219 69.2656 45.6094 69.4219C45.7969 69.5781 45.8906 69.7812 45.8906 70.0312L45.4219 78.8438L46.3594 80.4844L46.8281 85.0312C46.9844 85.2188 47.1875 85.4688 47.4375 85.7812C47.7188 86.0625 48.0625 86.5156 48.4688 87.1406Z" fill="black"/>
</svg>
