<svg width="43" height="148" viewBox="0 0 43 148" fill="none" xmlns="http://www.w3.org/2000/svg">
<path d="M42.4219 47.3906L42.0469 48.6094L39.6562 53.7188L38.6719 56.5781L37.3594 60.7969L36.75 62.5312L35.3438 65.8125L34.6406 68.8594L32.625 72.0469L26.9531 84.6094L25.4531 86.625L26.1094 87.5156L24.9375 88.3594L22.4531 89.7188L20.625 91.3594C20.3438 91.5469 20.0938 91.6406 19.875 91.6406C19.6875 91.6406 19.4688 91.5156 19.2188 91.2656C19 90.7656 18.8906 90.5 18.8906 90.4688L18.3281 88.3594L17.2031 87.1406L15.8438 83.9531L13.1719 78.9375L12.9375 76.3594L12.8438 75.3281C12.4688 74.8281 11.8281 74.5 10.9219 74.3438C11.5781 73.75 11.9062 73.3125 11.9062 73.0312C11.9062 72.3125 11.6719 71.7031 11.2031 71.2031C10.7656 70.6719 10.2031 70.4062 9.51562 70.4062L8.90625 70.5L8.0625 67.5469L7.21875 65.3438L7.125 62.625L5.10938 60.7969L1.26562 52.1719L0.5625 51.4219C1.03125 50.4219 1.48438 49.8125 1.92188 49.5938L4.6875 48.3281L5.85938 47.2031C5.92188 47.1406 6.04688 47.1094 6.23438 47.1094L7.40625 47.2969L8.4375 47.5781L8.71875 48.5156L9.98438 51.4219L10.9219 56.5781L12.6562 59.7656L13.4531 61.9688L14.3906 64.2656L14.5781 66.0938L15.6562 67.1719L16.3125 69.8438L18.7031 74.1562L18.3281 75.7969L19.2188 76.4531L20.3438 77.3438L22.6406 82.0312L23.9062 82.5938C24.2188 82.5938 24.375 82.5 24.375 82.3125L25.6406 79.6406L27.4688 76.2656L29.5781 71.2031L30.4219 69.6562C31.4531 69.5625 31.9688 69.2969 31.9688 68.8594V68.7656L31.6875 65.7188L31.875 64.7344L34.0781 59.5781L33.9844 56.1094L35.5312 52.5469L36.1875 49.7812C36.4375 49.0625 37.0312 48.4531 37.9688 47.9531C38.9062 47.4531 39.875 47.2031 40.875 47.2031L42.4219 47.3906Z" fill="black"/>
</svg>
