<svg width="62" height="148" viewBox="0 0 62 148" fill="none" xmlns="http://www.w3.org/2000/svg">
<path d="M60.9375 47.6719C60.7812 50.3906 60.5938 52.1094 60.375 52.8281L59.3438 55.9219L59.0625 57.2812L58.0781 59.8594L57.7969 61.5C57.7031 61.8125 57.2812 62.2812 56.5312 62.9062L56.4375 63.8906L56.5312 65.25L51.5625 81.2812L51.0938 86.0625L47.4375 88.9219L46.2656 90.4688L45.3281 91.1719L44.5312 90.4688L43.7812 89.5312L42.6094 88.8281L42.3281 87.9844L41.7656 85.9688L40.6875 84.7031L41.5781 84.1406L41.4844 83.2969L40.5938 82.3125L39.2812 81.5625C38.8125 81.3125 38.4219 80.7656 38.1094 79.9219L36.9375 75.1406L35.25 71.8594C35.3438 71.4219 35.5625 71.2031 35.9062 71.2031C36.2188 71.2031 36.4688 71.2656 36.6562 71.3906C36.6562 69.9219 36.25 68.9531 35.4375 68.4844L33.9844 67.7344C33.6094 67.4844 33.125 66.0781 32.5312 63.5156L32.1562 62.625H31.6875L31.2188 63.7031L27.8438 75.2344L25.4531 82.0312L24.8438 84.7969L24.2812 86.4375L24 88.0781L21.7969 89.625L21.0469 90.375C20.2031 90.5 19.5781 90.6406 19.1719 90.7969C18.7969 90.9531 18.3281 91.2344 17.7656 91.6406L17.2969 90.4688L15.8438 87.8906L15.0938 86.0625L13.1719 79.4531L10.4531 74.625L10.7344 70.875L10.4531 70.0312C9.32812 70.0312 8.59375 69.6406 8.25 68.8594L7.5 66.9375L6.51562 65.3438L5.48438 61.9688L4.125 60.5156L0.65625 53.25L0 52.0781C0.65625 50.5469 1.32812 49.6562 2.01562 49.4062L3.9375 48.7031L5.95312 47.2031C6.04688 47.1719 6.125 47.1562 6.1875 47.1562C6.28125 47.125 6.39062 47.1094 6.51562 47.1094C6.95312 47.1094 7.32812 47.2344 7.64062 47.4844C7.95312 47.7344 8.1875 48.0781 8.34375 48.5156L10.2656 55.6406L10.6406 56.7656C10.4844 57.1094 10.1719 57.4688 9.70312 57.8438C10.1406 59.25 10.625 59.9531 11.1562 59.9531H11.9062L12.8438 59.7656C13.75 61.0156 14.2031 61.8125 14.2031 62.1562V62.3438L13.9219 64.4531L14.8594 67.5469L15.375 69.375L16.5938 71.1094L19.125 79.1719L20.1562 80.3906L20.7188 81.2812H21.6094L21.9844 80.3906C22.7969 79.0156 23.3125 77.7656 23.5312 76.6406L23.7188 73.875L24.9375 71.2031L25.5469 68.6719C25.5781 68.5781 26.125 67.1719 27.1875 64.4531C27.1875 62.8594 27.2344 61.6719 27.3281 60.8906C27.4531 60.1094 27.6719 59.5156 27.9844 59.1094C28.3281 58.7031 28.8906 58.3125 29.6719 57.9375L29.2031 56.8594L28.125 55.5469L28.3125 52.5469L27.9375 51.1406L27.8438 49.5938L28.9688 49.0312L30.0469 48.3281C30.5781 47.8906 31.7344 47.5781 33.5156 47.3906L34.3594 47.2969L35.25 47.9531L36.375 48.7031L36.9375 51.8906L37.8281 55.8281L37.1719 57.6562C37.2656 57.9062 37.4531 58.25 37.7344 58.6875C38.0156 59.125 38.4219 59.4844 38.9531 59.7656L40.125 63.0469L40.4062 63.9844L41.2969 66.9375L45.6094 78.8438C45.8594 79.5312 46.125 80 46.4062 80.25C46.7188 80.5 47.1562 80.7031 47.7188 80.8594L49.0781 78.75C48.7344 78.1562 48.5625 77.4844 48.5625 76.7344C48.5625 76.4844 48.625 76.2344 48.75 75.9844L52.0312 67.6406L52.125 65.5312L53.4844 61.2188L53.6719 57.9375L54.2344 54.8438C54.3281 53.75 54.4062 52.8438 54.4688 52.125C54.5625 51.4062 54.7031 50.8438 54.8906 50.4375C55.0781 50 55.3906 49.6406 55.8281 49.3594C56.2969 49.0469 56.7656 48.7344 57.2344 48.4219C58.4531 47.6719 59.25 47.2969 59.625 47.2969C59.75 47.2969 60.1875 47.4219 60.9375 47.6719Z" fill="black"/>
</svg>
