<svg width="47" height="148" viewBox="0 0 47 148" fill="none" xmlns="http://www.w3.org/2000/svg">
<path d="M46.9219 86.7188C46.9219 86.9375 46.5156 87.4531 45.7031 88.2656L44.8125 89.1562C44.125 89.875 43.3594 90.4531 42.5156 90.8906C41.7031 91.3281 41.0312 91.5469 40.5 91.5469C40.25 91.5469 39.6094 90.9688 38.5781 89.8125L33.4219 84.0469C33.2031 83.8281 32.5938 82.5781 31.5938 80.2969H30.2344L28.4062 78.6562C27.4688 77.5625 26.8281 76.8594 26.4844 76.5469C26.1406 76.2344 25.625 75.8906 24.9375 75.5156L24 74.9062C23.7188 73.7812 23.1719 72.6719 22.3594 71.5781L21.0469 72.3281L20.3438 74.1562L18.5156 75.7031L16.7812 78C15.9375 79.0625 15.2031 79.7656 14.5781 80.1094L13.1719 80.9531L12.0938 82.2188L8.71875 87.7031C8.09375 88.6719 7.07812 89.4375 5.67188 90L5.20312 91.7344H3.9375C2.21875 91.7344 1.35938 91.0938 1.35938 89.8125C1.35938 89.1562 1.67188 88.5156 2.29688 87.8906L8.53125 81.9375L9.79688 80.9531L12.5625 77.25L17.3906 72.2344L19.125 70.4062L18.2344 69.0938L15.8438 66.5625L15.1875 64.1719L13.3594 63.6094L11.0625 61.2188L8.71875 59.3906L8.34375 57.1875C8.15625 56.5312 7.8125 56.2031 7.3125 56.2031C7.03125 56.2031 6.70312 56.2656 6.32812 56.3906L5.57812 55.8281C4.14062 54.7344 3.15625 53.9219 2.625 53.3906C2.125 52.8281 1.70312 52.2031 1.35938 51.5156L2.39062 50.4375C3.35938 49.4688 4.15625 48.8281 4.78125 48.5156C5.4375 48.1719 6.46875 47.9219 7.875 47.7656L8.25 47.3906H8.71875L9.42188 48.2344L11.25 50.3438L13.3594 53.3438C13.9844 53.875 14.2969 54.3438 14.2969 54.75V55.1719C14.9219 55.9844 15.375 56.4844 15.6562 56.6719C15.9375 56.8594 16.375 56.9531 16.9688 56.9531L18.7031 59.1094C20.5156 60.7656 21.4219 61.8438 21.4219 62.3438L21.3281 63.7969L21.2344 63.8906C21.2344 64.1406 21.4531 64.5 21.8906 64.9688C22.3594 65.4062 22.7812 65.625 23.1562 65.625C23.75 65.625 24.4531 65.0469 25.2656 63.8906L26.2031 62.5312C27.1094 62.5 27.7344 62.3594 28.0781 62.1094C28.4219 61.8594 28.7656 61.2656 29.1094 60.3281L28.7812 59.4844L29.5781 58.7812C31.2969 57.375 32.1875 56.4844 32.25 56.1094L32.625 54.0938L34.0781 52.2656L36.1875 49.3125L37.5469 48.4219C38.5156 47.6719 39.375 47.2969 40.125 47.2969C40.8438 47.2969 41.2031 47.7031 41.2031 48.5156C41.2031 48.8906 41.125 49.1875 40.9688 49.4062L38.5781 52.6406L36.9375 55.1719L34.6406 57.6562L30.2344 62.7188L26.1094 67.1719L25.6406 68.5781C26.4531 68.6406 27.0156 68.7656 27.3281 68.9531C27.6406 69.1094 28 69.5 28.4062 70.125L29.4844 70.3125L30.4219 71.2969L33.7031 74.8125C34.2656 75.5 35.0938 76.2031 36.1875 76.9219C37.2812 77.7344 37.8281 78.3438 37.8281 78.75C37.8281 78.9688 37.7031 79.2031 37.4531 79.4531L37.7344 79.8281C38.5156 79.8281 39.125 80.1094 39.5625 80.6719C40.3125 80.6719 40.8281 80.75 41.1094 80.9062C41.3906 81.0625 41.7969 81.4688 42.3281 82.125C42.7969 82.6875 43.4062 83.2344 44.1562 83.7656C46 85.0156 46.9219 86 46.9219 86.7188Z" fill="black"/>
</svg>
