<svg width="56" height="148" viewBox="0 0 56 148" fill="none" xmlns="http://www.w3.org/2000/svg">
<path d="M50.6406 80.1094L49.0469 84.5156V84.7031L49.2344 85.4062L50.1719 86.5312L49.7969 89.0625L49.9844 92.6719L49.5156 93.8438L49.6094 98.8125L48.9062 100.453L48.4375 102.75L47.6875 104.297L47.7812 106.688L46.1406 110.719L45.7656 111.797L44.4062 112.641L40.8438 117.188L38.7344 120.328C37.9531 121.547 37.1562 122.344 36.3438 122.719L35.125 123.422L33.9531 124.641L32.5 125.531L31.6562 126.281L29.6406 126.844C29.6094 126.844 28.6094 127.297 26.6406 128.203L23.6875 129.281L19.4688 130.5L15.0625 130.031L12.7188 129.75C11.5938 129.656 10.6406 129.391 9.85938 128.953L6.67188 126.938L5.07812 126.562L3.8125 124.828L1.32812 123.328C0.734375 122.828 0.4375 121.953 0.4375 120.703C0.4375 119.391 0.890625 118.141 1.79688 116.953C2.07812 116.609 2.6875 116.391 3.625 116.297L4.1875 117.656L4.65625 118.969L6.48438 121.5L8.3125 124.359C8.96875 125.016 9.45312 125.344 9.76562 125.344H9.85938L10.5156 125.25L14.4531 126.844L17.7344 127.078C18.1406 127.391 18.5469 127.547 18.9531 127.547C19.2656 127.547 19.6875 127.344 20.2188 126.938L21.2969 127.078C22.6094 127.078 24.4844 126.531 26.9219 125.438C29.0781 124.375 30.3906 123.578 30.8594 123.047L34.4219 119.391L36.625 118.031C37.4375 117.406 38.1094 116.25 38.6406 114.562L39.8125 110.719L41.5469 108.047L41.2656 106.031L42.1094 102.281L42.2031 98.4375C42.2031 97.125 42.5 95.8125 43.0938 94.5L43.8438 91.9219L43.2812 89.7188L42.7656 83.2031L42.6719 82.125V81.6562L43.4688 79.1719L42.9531 78.4688L41.5469 79.1719L39.9062 80.1094L38.5469 81.5625L34.0469 84.4219L31.75 86.625L28.1875 89.25C27.1875 89.9375 26.4219 90.375 25.8906 90.5625L22.7969 91.0781L21.1094 91.7344C20.4219 91.9219 19.9062 92.0156 19.5625 92.0156C18.3438 92.0156 16.7188 91.625 14.6875 90.8438C12.6562 90.0625 11.2656 89.2656 10.5156 88.4531C9.29688 87.2344 8.6875 85.6719 8.6875 83.7656L8.78125 82.7812C9.4375 82.3438 9.76562 81.9375 9.76562 81.5625C9.76562 81.5 9.75 81.4531 9.71875 81.4219C9.71875 81.3594 9.70312 81.3125 9.67188 81.2812L8.6875 79.9219L8.59375 78.5625L8.875 77.3438L10.7031 73.125L10.3281 71.4844V70.875C10.3281 70.5312 10.4531 69.7656 10.7031 68.5781L11.5938 65.1562C11.7812 64.3438 11.9375 63.5625 12.0625 62.8125L12.1562 59.2031L13.0469 55.5469C13.0469 55.1094 12.8125 54.5625 12.3438 53.9062L11.0312 53.7188L10.8906 52.9219L12.625 50.9062L13.7031 50.5312L15.3438 50.0625L20.0312 47.3906H20.3125C20.7812 47.3906 21.1562 47.5781 21.4375 47.9531C21.7188 48.3281 21.8594 48.8125 21.8594 49.4062V49.6875L20.4062 53.25L19.75 56.7656L18.5781 62.1562L18.2969 65.3438C18.1406 65.8125 17.8906 66.0938 17.5469 66.1875L16.0938 66.5625C15.5938 66.75 15.3438 67.1094 15.3438 67.6406C15.3438 68.3906 15.9844 68.7656 17.2656 68.7656L15.9062 78.4688L15.5312 81.2812L15.8125 82.0312L16.4688 82.875L17.8281 85.125L20.5 86.1562L21.7656 87.6094L22.4219 87.8906H22.7969L24.3438 86.8125L28.8438 85.3125L30.7656 83.9531L34.0469 81.6562L37.1406 78.6562L39.1562 77.4375L40 76.9219L41.7344 72.4219L42.0156 72.2344L42.2031 71.3906L43.1875 70.2188L42.7656 67.6406L43.1875 66.9375L42.9531 64.9219L43.2812 63.8906L42.4844 59.7656L42.1094 54.0938L40.75 51.3281C40.6875 51.2031 40.6562 51 40.6562 50.7188V49.9688L42.6719 49.3125L44.125 47.9531L46.8906 47.5781L47.9688 47.2969C48.875 47.9219 49.3281 48.4531 49.3281 48.8906V49.125L49.0469 50.8125L49.2344 54.1875L48.8125 55.5469V56.7656L48.25 58.875L48.3438 59.5781C48.8125 60.7031 49.1719 61.5469 49.4219 62.1094C49.6719 62.6719 49.7969 63.1094 49.7969 63.4219V64.6406L49.9844 67.6406L49.3281 69.2812C49.2031 69.6562 49.1406 69.9375 49.1406 70.125C49.1406 71 49.6406 71.8906 50.6406 72.7969L50.5469 73.9688L50.6406 80.1094Z" fill="black"/>
</svg>
