<svg width="44" height="148" viewBox="0 0 44 148" fill="none" xmlns="http://www.w3.org/2000/svg">
<path d="M43.0312 84.4219C43.0312 84.6406 42.8906 85.0312 42.6094 85.5938L41.7656 86.7188L41.1094 87.9844H40.5C40 88.9531 39.5156 89.625 39.0469 90C38.5781 90.375 37.9844 90.5625 37.2656 90.5625L36.375 90.4688L33.0469 89.8125L27.9375 90L24.0938 88.6406L19.5 89.4375L16.4062 89.1562L14.4844 89.7188C13.8281 89.9062 13.0312 90 12.0938 90H11.25L7.78125 89.9062L6.23438 90L2.48438 90.2812C1.45312 90.2812 0.9375 89.7969 0.9375 88.8281C0.9375 88.4844 1.01562 88.2344 1.17188 88.0781L3.84375 85.2188L7.59375 80.0156L10.4531 77.3438L11.4375 75.4219C11.9375 75.5469 12.25 75.6094 12.375 75.6094C12.75 75.6094 13.2031 75.375 13.7344 74.9062C14.3594 74.1562 14.6719 73.6875 14.6719 73.5C14.6719 73.25 14.5156 72.9219 14.2031 72.5156L20.5312 64.0781C21.6875 64.0781 22.3594 63.7656 22.5469 63.1406L23.1562 60.8906L25.5469 57.9375L27.6562 54.2812L28.4062 53.25L25.7344 52.2656L18.2344 52.4531L12.4688 51.8906L9.51562 52.0781H9.14062H8.34375H7.59375L6.42188 52.1719L4.21875 52.7344C3.78125 52.7344 3.5625 52.4219 3.5625 51.7969C3.5625 51.2344 3.71875 50.9062 4.03125 50.8125L5.85938 49.5938C6.67188 49 7.40625 48.125 8.0625 46.9688C8.1875 46.9062 8.26562 46.875 8.29688 46.875C8.35938 46.875 8.40625 46.875 8.4375 46.875L11.5312 47.4844L12.375 46.875C13.4688 47.7812 14.2969 48.2344 14.8594 48.2344C15.1406 48.2344 15.3438 48.2031 15.4688 48.1406L16.7812 47.8594L18.0469 48.0469L19.875 47.9531L24.4688 49.125L29.4844 48.4219L31.4062 48.6094L33.2344 48.3281L35.25 48.1406L37.1719 47.7656C37.8906 47.8594 38.4219 48.5312 38.7656 49.7812L38.1094 50.5312L35.9062 53.25L34.5469 55.1719C34.2969 55.6406 34.0625 55.9531 33.8438 56.1094C33.6562 56.2344 33.2812 56.2969 32.7188 56.2969L31.875 56.2031C31.875 56.5156 31.8438 56.8594 31.7812 57.2344C31.7188 57.5781 31.6094 57.875 31.4531 58.125C31.3281 58.3438 31.0781 58.6562 30.7031 59.0625C30.3594 59.4688 29.8906 59.9844 29.2969 60.6094L28.125 62.1562C27.625 62.3125 27.1406 62.5625 26.6719 62.9062V63.7031C26.6719 64.0781 26.5781 64.3594 26.3906 64.5469L24.5625 66.4688L22.8281 68.8594C21.6406 70.1094 21.0469 70.8906 21.0469 71.2031C21.0469 71.3906 21.0781 71.5469 21.1406 71.6719C20.8281 72.0781 20.5781 72.3906 20.3906 72.6094C20.2031 72.8281 20.0938 72.9688 20.0625 73.0312L16.5 77.9062L13.9219 78.8438C13.6094 79.2188 13.4531 79.6406 13.4531 80.1094C13.4531 80.3594 13.5469 80.8438 13.7344 81.5625L11.8125 84.3281L11.25 85.5H14.0156L16.875 85.4062C17.375 85.4062 18.0938 85.6562 19.0312 86.1562C19.8438 85.6562 20.3438 85.4062 20.5312 85.4062L25.6406 85.5L32.4375 84.8906L36 85.6875L37.1719 85.875L37.9219 85.6875V84.6094L38.7656 84.3281C40.3281 83.8281 41.4531 83.5781 42.1406 83.5781C42.3906 83.5781 42.5938 83.6562 42.75 83.8125C42.9375 83.9375 43.0312 84.1406 43.0312 84.4219Z" fill="black"/>
</svg>
