<svg width="43" height="110" viewBox="0 0 43 110" fill="none" xmlns="http://www.w3.org/2000/svg">
<path d="M27.3281 80.8125C22.9219 84.2188 20.1562 86.1875 19.0312 86.7188C17.3438 87.5 15.5469 87.8906 13.6406 87.8906C10.6719 87.8906 8.21875 86.875 6.28125 84.8438C4.375 82.8125 3.42188 80.1406 3.42188 76.8281C3.42188 74.7344 3.89062 72.9219 4.82812 71.3906C6.10938 69.2656 8.32812 67.2656 11.4844 65.3906C14.6719 63.5156 19.9531 61.2344 27.3281 58.5469V56.8594C27.3281 52.5781 26.6406 49.6406 25.2656 48.0469C23.9219 46.4531 21.9531 45.6562 19.3594 45.6562C17.3906 45.6562 15.8281 46.1875 14.6719 47.25C13.4844 48.3125 12.8906 49.5312 12.8906 50.9062L12.9844 53.625C12.9844 55.0625 12.6094 56.1719 11.8594 56.9531C11.1406 57.7344 10.1875 58.125 9 58.125C7.84375 58.125 6.89062 57.7188 6.14062 56.9062C5.42188 56.0938 5.0625 54.9844 5.0625 53.5781C5.0625 50.8906 6.4375 48.4219 9.1875 46.1719C11.9375 43.9219 15.7969 42.7969 20.7656 42.7969C24.5781 42.7969 27.7031 43.4375 30.1406 44.7188C31.9844 45.6875 33.3438 47.2031 34.2188 49.2656C34.7812 50.6094 35.0625 53.3594 35.0625 57.5156V72.0938C35.0625 76.1875 35.1406 78.7031 35.2969 79.6406C35.4531 80.5469 35.7031 81.1562 36.0469 81.4688C36.4219 81.7812 36.8438 81.9375 37.3125 81.9375C37.8125 81.9375 38.25 81.8281 38.625 81.6094C39.2812 81.2031 40.5469 80.0625 42.4219 78.1875V80.8125C38.9219 85.5 35.5781 87.8438 32.3906 87.8438C30.8594 87.8438 29.6406 87.3125 28.7344 86.25C27.8281 85.1875 27.3594 83.375 27.3281 80.8125ZM27.3281 77.7656V61.4062C22.6094 63.2812 19.5625 64.6094 18.1875 65.3906C15.7188 66.7656 13.9531 68.2031 12.8906 69.7031C11.8281 71.2031 11.2969 72.8438 11.2969 74.625C11.2969 76.875 11.9688 78.75 13.3125 80.25C14.6562 81.7188 16.2031 82.4531 17.9531 82.4531C20.3281 82.4531 23.4531 80.8906 27.3281 77.7656Z" fill="black"/>
</svg>
