<svg width="49" height="110" viewBox="0 0 49 110" fill="none" xmlns="http://www.w3.org/2000/svg">
<path d="M15.7656 51.4688C19.9219 45.6875 24.4062 42.7969 29.2188 42.7969C33.625 42.7969 37.4688 44.6875 40.75 48.4688C44.0312 52.2188 45.6719 57.3594 45.6719 63.8906C45.6719 71.5156 43.1406 77.6562 38.0781 82.3125C33.7344 86.3125 28.8906 88.3125 23.5469 88.3125C21.0469 88.3125 18.5 87.8594 15.9062 86.9531C13.3438 86.0469 10.7188 84.6875 8.03125 82.875V38.3906C8.03125 33.5156 7.90625 30.5156 7.65625 29.3906C7.4375 28.2656 7.07812 27.5 6.57812 27.0938C6.07812 26.6875 5.45312 26.4844 4.70312 26.4844C3.82812 26.4844 2.73438 26.7344 1.42188 27.2344L0.765625 25.5938L13.6562 20.3438H15.7656V51.4688ZM15.7656 54.4688V80.1562C17.3594 81.7188 19 82.9062 20.6875 83.7188C22.4062 84.5 24.1562 84.8906 25.9375 84.8906C28.7812 84.8906 31.4219 83.3281 33.8594 80.2031C36.3281 77.0781 37.5625 72.5312 37.5625 66.5625C37.5625 61.0625 36.3281 56.8438 33.8594 53.9062C31.4219 50.9375 28.6406 49.4531 25.5156 49.4531C23.8594 49.4531 22.2031 49.875 20.5469 50.7188C19.2969 51.3438 17.7031 52.5938 15.7656 54.4688Z" fill="black"/>
</svg>
