<svg width="43" height="110" viewBox="0 0 43 110" fill="none" xmlns="http://www.w3.org/2000/svg">
<path d="M39.4688 70.6875C38.3125 76.3438 36.0469 80.7031 32.6719 83.7656C29.2969 86.7969 25.5625 88.3125 21.4688 88.3125C16.5938 88.3125 12.3438 86.2656 8.71875 82.1719C5.09375 78.0781 3.28125 72.5469 3.28125 65.5781C3.28125 58.8281 5.28125 53.3438 9.28125 49.125C13.3125 44.9062 18.1406 42.7969 23.7656 42.7969C27.9844 42.7969 31.4531 43.9219 34.1719 46.1719C36.8906 48.3906 38.25 50.7031 38.25 53.1094C38.25 54.2969 37.8594 55.2656 37.0781 56.0156C36.3281 56.7344 35.2656 57.0938 33.8906 57.0938C32.0469 57.0938 30.6562 56.5 29.7188 55.3125C29.1875 54.6562 28.8281 53.4062 28.6406 51.5625C28.4844 49.7188 27.8594 48.3125 26.7656 47.3438C25.6719 46.4062 24.1562 45.9375 22.2188 45.9375C19.0938 45.9375 16.5781 47.0938 14.6719 49.4062C12.1406 52.4688 10.875 56.5156 10.875 61.5469C10.875 66.6719 12.125 71.2031 14.625 75.1406C17.1562 79.0469 20.5625 81 24.8438 81C27.9062 81 30.6562 79.9531 33.0938 77.8594C34.8125 76.4219 36.4844 73.8125 38.1094 70.0312L39.4688 70.6875Z" fill="black"/>
</svg>
