<svg width="49" height="110" viewBox="0 0 49 110" fill="none" xmlns="http://www.w3.org/2000/svg">
<path d="M33.3281 82.1719C31.2344 84.3594 29.1875 85.9375 27.1875 86.9062C25.1875 87.8438 23.0312 88.3125 20.7188 88.3125C16.0312 88.3125 11.9375 86.3594 8.4375 82.4531C4.9375 78.5156 3.1875 73.4688 3.1875 67.3125C3.1875 61.1562 5.125 55.5312 9 50.4375C12.875 45.3125 17.8594 42.75 23.9531 42.75C27.7344 42.75 30.8594 43.9531 33.3281 46.3594V38.4375C33.3281 33.5312 33.2031 30.5156 32.9531 29.3906C32.7344 28.2656 32.375 27.5 31.875 27.0938C31.375 26.6875 30.75 26.4844 30 26.4844C29.1875 26.4844 28.1094 26.7344 26.7656 27.2344L26.1562 25.5938L38.9531 20.3438H41.0625V69.9844C41.0625 75.0156 41.1719 78.0938 41.3906 79.2188C41.6406 80.3125 42.0156 81.0781 42.5156 81.5156C43.0469 81.9531 43.6562 82.1719 44.3438 82.1719C45.1875 82.1719 46.3125 81.9062 47.7188 81.375L48.2344 83.0156L35.4844 88.3125H33.3281V82.1719ZM33.3281 78.8906V56.7656C33.1406 54.6406 32.5781 52.7031 31.6406 50.9531C30.7031 49.2031 29.4531 47.8906 27.8906 47.0156C26.3594 46.1094 24.8594 45.6562 23.3906 45.6562C20.6406 45.6562 18.1875 46.8906 16.0312 49.3594C13.1875 52.6094 11.7656 57.3594 11.7656 63.6094C11.7656 69.9219 13.1406 74.7656 15.8906 78.1406C18.6406 81.4844 21.7031 83.1562 25.0781 83.1562C27.9219 83.1562 30.6719 81.7344 33.3281 78.8906Z" fill="black"/>
</svg>
