<svg width="43" height="110" viewBox="0 0 43 110" fill="none" xmlns="http://www.w3.org/2000/svg">
<path d="M10.2188 60.2344C10.1875 66.6094 11.7344 71.6094 14.8594 75.2344C17.9844 78.8594 21.6562 80.6719 25.875 80.6719C28.6875 80.6719 31.125 79.9062 33.1875 78.375C35.2812 76.8125 37.0312 74.1562 38.4375 70.4062L39.8906 71.3438C39.2344 75.625 37.3281 79.5312 34.1719 83.0625C31.0156 86.5625 27.0625 88.3125 22.3125 88.3125C17.1562 88.3125 12.7344 86.3125 9.04688 82.3125C5.39062 78.2812 3.5625 72.875 3.5625 66.0938C3.5625 58.75 5.4375 53.0312 9.1875 48.9375C12.9688 44.8125 17.7031 42.75 23.3906 42.75C28.2031 42.75 32.1562 44.3438 35.25 47.5312C38.3438 50.6875 39.8906 54.9219 39.8906 60.2344H10.2188ZM10.2188 57.5156H30.0938C29.9375 54.7656 29.6094 52.8281 29.1094 51.7031C28.3281 49.9531 27.1562 48.5781 25.5938 47.5781C24.0625 46.5781 22.4531 46.0781 20.7656 46.0781C18.1719 46.0781 15.8438 47.0938 13.7812 49.125C11.75 51.125 10.5625 53.9219 10.2188 57.5156Z" fill="black"/>
</svg>
