<svg width="42" height="110" viewBox="0 0 42 110" fill="none" xmlns="http://www.w3.org/2000/svg">
<path d="M19.7812 47.4375V75.6562C19.7812 79.6562 20.2188 82.1875 21.0938 83.25C22.25 84.625 23.7969 85.3125 25.7344 85.3125H29.625V87H3.98438V85.3125H5.90625C7.15625 85.3125 8.29688 85 9.32812 84.375C10.3594 83.75 11.0625 82.9062 11.4375 81.8438C11.8438 80.7812 12.0469 78.7188 12.0469 75.6562V47.4375H3.70312V44.0625H12.0469V41.25C12.0469 36.9688 12.7344 33.3438 14.1094 30.375C15.4844 27.4063 17.5781 25.0156 20.3906 23.2031C23.2344 21.3594 26.4219 20.4375 29.9531 20.4375C33.2344 20.4375 36.25 21.5 39 23.625C40.8125 25.0312 41.7188 26.6094 41.7188 28.3594C41.7188 29.2969 41.3125 30.1875 40.5 31.0312C39.6875 31.8437 38.8125 32.25 37.875 32.25C37.1562 32.25 36.3906 32 35.5781 31.5C34.7969 30.9688 33.8281 29.8594 32.6719 28.1719C31.5156 26.4531 30.4531 25.2969 29.4844 24.7031C28.5156 24.1094 27.4375 23.8125 26.25 23.8125C24.8125 23.8125 23.5938 24.2031 22.5938 24.9844C21.5938 25.7344 20.875 26.9219 20.4375 28.5469C20 30.1406 19.7812 34.2812 19.7812 40.9688V44.0625H30.8438V47.4375H19.7812Z" fill="black"/>
</svg>
