<svg width="48" height="110" viewBox="0 0 48 110" fill="none" xmlns="http://www.w3.org/2000/svg">
<path d="M14.4844 71.3438C11.8594 70.0625 9.84375 68.2812 8.4375 66C7.03125 63.6875 6.32812 61.1406 6.32812 58.3594C6.32812 54.1094 7.92188 50.4531 11.1094 47.3906C14.3281 44.3281 18.4375 42.7969 23.4375 42.7969C27.5312 42.7969 31.0781 43.7969 34.0781 45.7969H43.1719C44.5156 45.7969 45.2969 45.8438 45.5156 45.9375C45.7344 46 45.8906 46.125 45.9844 46.3125C46.1719 46.5938 46.2656 47.0938 46.2656 47.8125C46.2656 48.625 46.1875 49.1875 46.0312 49.5C45.9375 49.6562 45.7656 49.7812 45.5156 49.875C45.2969 49.9688 44.5156 50.0156 43.1719 50.0156H37.5938C39.3438 52.2656 40.2188 55.1406 40.2188 58.6406C40.2188 62.6406 38.6875 66.0625 35.625 68.9062C32.5625 71.75 28.4531 73.1719 23.2969 73.1719C21.1719 73.1719 19 72.8594 16.7812 72.2344C15.4062 73.4219 14.4688 74.4688 13.9688 75.375C13.5 76.25 13.2656 77 13.2656 77.625C13.2656 78.1562 13.5156 78.6719 14.0156 79.1719C14.5469 79.6719 15.5625 80.0312 17.0625 80.25C17.9375 80.375 20.125 80.4844 23.625 80.5781C30.0625 80.7344 34.2344 80.9531 36.1406 81.2344C39.0469 81.6406 41.3594 82.7188 43.0781 84.4688C44.8281 86.2188 45.7031 88.375 45.7031 90.9375C45.7031 94.4688 44.0469 97.7812 40.7344 100.875C35.8594 105.438 29.5 107.719 21.6562 107.719C15.625 107.719 10.5312 106.359 6.375 103.641C4.03125 102.078 2.85938 100.453 2.85938 98.7656C2.85938 98.0156 3.03125 97.2656 3.375 96.5156C3.90625 95.3594 5 93.75 6.65625 91.6875C6.875 91.4062 8.46875 89.7188 11.4375 86.625C9.8125 85.6562 8.65625 84.7969 7.96875 84.0469C7.3125 83.2656 6.98438 82.3906 6.98438 81.4219C6.98438 80.3281 7.42188 79.0469 8.29688 77.5781C9.20312 76.1094 11.2656 74.0312 14.4844 71.3438ZM22.6406 45.0469C20.3281 45.0469 18.3906 45.9688 16.8281 47.8125C15.2656 49.6562 14.4844 52.4844 14.4844 56.2969C14.4844 61.2344 15.5469 65.0625 17.6719 67.7812C19.2969 69.8438 21.3594 70.875 23.8594 70.875C26.2344 70.875 28.1875 69.9844 29.7188 68.2031C31.25 66.4219 32.0156 63.625 32.0156 59.8125C32.0156 54.8438 30.9375 50.9531 28.7812 48.1406C27.1875 46.0781 25.1406 45.0469 22.6406 45.0469ZM14.0156 87C12.5469 88.5938 11.4375 90.0781 10.6875 91.4531C9.9375 92.8281 9.5625 94.0938 9.5625 95.25C9.5625 96.75 10.4688 98.0625 12.2812 99.1875C15.4062 101.125 19.9219 102.094 25.8281 102.094C31.4531 102.094 35.5938 101.094 38.25 99.0938C40.9375 97.125 42.2812 95.0156 42.2812 92.7656C42.2812 91.1406 41.4844 89.9844 39.8906 89.2969C38.2656 88.6094 35.0469 88.2031 30.2344 88.0781C23.2031 87.8906 17.7969 87.5312 14.0156 87Z" fill="black"/>
</svg>
