<svg width="48" height="110" viewBox="0 0 48 110" fill="none" xmlns="http://www.w3.org/2000/svg">
<path d="M15.6094 20.3438V51.75C19.0781 47.9375 21.8281 45.5 23.8594 44.4375C25.8906 43.3438 27.9219 42.7969 29.9531 42.7969C32.3906 42.7969 34.4844 43.4688 36.2344 44.8125C37.9844 46.1562 39.2812 48.2656 40.125 51.1406C40.7188 53.1406 41.0156 56.7969 41.0156 62.1094V77.2969C41.0156 80.0156 41.2344 81.875 41.6719 82.875C41.9844 83.625 42.5156 84.2188 43.2656 84.6562C44.0156 85.0938 45.3906 85.3125 47.3906 85.3125V87H26.2969V85.3125H27.2812C29.2812 85.3125 30.6719 85.0156 31.4531 84.4219C32.2344 83.7969 32.7812 82.8906 33.0938 81.7031C33.1875 81.2031 33.2344 79.7344 33.2344 77.2969V62.1094C33.2344 57.4219 32.9844 54.3438 32.4844 52.875C32.0156 51.4062 31.25 50.3125 30.1875 49.5938C29.125 48.8438 27.8438 48.4688 26.3438 48.4688C24.8125 48.4688 23.2188 48.875 21.5625 49.6875C19.9062 50.5 17.9219 52.1406 15.6094 54.6094V77.2969C15.6094 80.2344 15.7656 82.0625 16.0781 82.7812C16.4219 83.5 17.0312 84.1094 17.9062 84.6094C18.8125 85.0781 20.3594 85.3125 22.5469 85.3125V87H1.26562V85.3125C3.17188 85.3125 4.67188 85.0156 5.76562 84.4219C6.39062 84.1094 6.89062 83.5156 7.26562 82.6406C7.64062 81.7656 7.82812 79.9844 7.82812 77.2969V38.4375C7.82812 33.5312 7.70312 30.5156 7.45312 29.3906C7.23438 28.2656 6.875 27.5 6.375 27.0938C5.90625 26.6875 5.26562 26.4844 4.45312 26.4844C3.79688 26.4844 2.73438 26.7344 1.26562 27.2344L0.609375 25.5938L13.4531 20.3438H15.6094Z" fill="black"/>
</svg>
