<svg width="27" height="110" viewBox="0 0 27 110" fill="none" xmlns="http://www.w3.org/2000/svg">
<path d="M13.9219 20.3438C15.2344 20.3438 16.3438 20.8125 17.25 21.75C18.1875 22.6562 18.6562 23.7656 18.6562 25.0781C18.6562 26.3906 18.1875 27.5156 17.25 28.4531C16.3438 29.3906 15.2344 29.8594 13.9219 29.8594C12.6094 29.8594 11.4844 29.3906 10.5469 28.4531C9.60938 27.5156 9.14062 26.3906 9.14062 25.0781C9.14062 23.7656 9.59375 22.6562 10.5 21.75C11.4375 20.8125 12.5781 20.3438 13.9219 20.3438ZM17.8125 42.7969V77.2969C17.8125 79.9844 18 81.7812 18.375 82.6875C18.7812 83.5625 19.3594 84.2188 20.1094 84.6562C20.8906 85.0938 22.2969 85.3125 24.3281 85.3125V87H3.46875V85.3125C5.5625 85.3125 6.96875 85.1094 7.6875 84.7031C8.40625 84.2969 8.96875 83.625 9.375 82.6875C9.8125 81.75 10.0312 79.9531 10.0312 77.2969V60.75C10.0312 56.0938 9.89062 53.0781 9.60938 51.7031C9.39062 50.7031 9.04688 50.0156 8.57812 49.6406C8.10938 49.2344 7.46875 49.0312 6.65625 49.0312C5.78125 49.0312 4.71875 49.2656 3.46875 49.7344L2.8125 48.0469L15.75 42.7969H17.8125Z" fill="black"/>
</svg>
