<svg width="35" height="110" viewBox="0 0 35 110" fill="none" xmlns="http://www.w3.org/2000/svg">
<path d="M21.875 20.2969C23.2188 20.2969 24.3594 20.7656 25.2969 21.7031C26.2344 22.6406 26.7031 23.7812 26.7031 25.125C26.7031 26.4375 26.2344 27.5625 25.2969 28.5C24.3594 29.4375 23.2188 29.9062 21.875 29.9062C20.5625 29.9062 19.4375 29.4375 18.5 28.5C17.5625 27.5625 17.0938 26.4375 17.0938 25.125C17.0938 23.7812 17.5625 22.6406 18.5 21.7031C19.4375 20.7656 20.5625 20.2969 21.875 20.2969ZM25.9062 42.7969V86.0156C25.9062 93.3594 24.3438 98.8125 21.2188 102.375C18.0938 105.938 14.0312 107.719 9.03125 107.719C6.1875 107.719 4.07812 107.203 2.70312 106.172C1.32812 105.141 0.640625 104.078 0.640625 102.984C0.640625 101.891 1.03125 100.953 1.8125 100.172C2.5625 99.3906 3.45312 99 4.48438 99C5.29688 99 6.125 99.2031 6.96875 99.6094C7.5 99.8281 8.51562 100.609 10.0156 101.953C11.5469 103.328 12.8281 104.016 13.8594 104.016C14.6094 104.016 15.3438 103.719 16.0625 103.125C16.7812 102.562 17.3125 101.594 17.6562 100.219C18 98.875 18.1719 95.9375 18.1719 91.4062V60.8438C18.1719 56.125 18.0312 53.0938 17.75 51.75C17.5312 50.7188 17.1875 50.0156 16.7188 49.6406C16.25 49.2344 15.6094 49.0312 14.7969 49.0312C13.9219 49.0312 12.8594 49.2656 11.6094 49.7344L10.9531 48.0469L23.8906 42.7969H25.9062Z" fill="black"/>
</svg>
