<svg width="49" height="110" viewBox="0 0 49 110" fill="none" xmlns="http://www.w3.org/2000/svg">
<path d="M15.7031 20.3438V63.0938L26.625 53.1094C28.9375 50.9844 30.2812 49.6406 30.6562 49.0781C30.9062 48.7031 31.0312 48.3281 31.0312 47.9531C31.0312 47.3281 30.7656 46.7969 30.2344 46.3594C29.7344 45.8906 28.8906 45.625 27.7031 45.5625V44.0625H46.3594V45.5625C43.7969 45.625 41.6562 46.0156 39.9375 46.7344C38.25 47.4531 36.3906 48.7344 34.3594 50.5781L23.3438 60.75L34.3594 74.6719C37.4219 78.5156 39.4844 80.9531 40.5469 81.9844C42.0469 83.4531 43.3594 84.4062 44.4844 84.8438C45.2656 85.1562 46.625 85.3125 48.5625 85.3125V87H27.7031V85.3125C28.8906 85.2812 29.6875 85.1094 30.0938 84.7969C30.5312 84.4531 30.75 83.9844 30.75 83.3906C30.75 82.6719 30.125 81.5156 28.875 79.9219L15.7031 63.0938V77.3438C15.7031 80.125 15.8906 81.9531 16.2656 82.8281C16.6719 83.7031 17.2344 84.3281 17.9531 84.7031C18.6719 85.0781 20.2344 85.2812 22.6406 85.3125V87H0.796875V85.3125C2.98438 85.3125 4.625 85.0469 5.71875 84.5156C6.375 84.1719 6.875 83.6406 7.21875 82.9219C7.6875 81.8906 7.92188 80.1094 7.92188 77.5781V38.4844C7.92188 33.5156 7.8125 30.4844 7.59375 29.3906C7.375 28.2656 7.01562 27.5 6.51562 27.0938C6.01562 26.6563 5.35938 26.4375 4.54688 26.4375C3.89062 26.4375 2.90625 26.7031 1.59375 27.2344L0.796875 25.5938L13.5469 20.3438H15.7031Z" fill="black"/>
</svg>
