<svg width="29" height="110" viewBox="0 0 29 110" fill="none" xmlns="http://www.w3.org/2000/svg">
<path d="M17.7656 20.3438V77.2969C17.7656 79.9844 17.9531 81.7656 18.3281 82.6406C18.7344 83.5156 19.3438 84.1875 20.1562 84.6562C20.9688 85.0938 22.4844 85.3125 24.7031 85.3125V87H3.65625V85.3125C5.625 85.3125 6.96875 85.1094 7.6875 84.7031C8.40625 84.2969 8.96875 83.625 9.375 82.6875C9.78125 81.75 9.98438 79.9531 9.98438 77.2969V38.2969C9.98438 33.4531 9.875 30.4844 9.65625 29.3906C9.4375 28.2656 9.07812 27.5 8.57812 27.0938C8.10938 26.6875 7.5 26.4844 6.75 26.4844C5.9375 26.4844 4.90625 26.7344 3.65625 27.2344L2.85938 25.5938L15.6562 20.3438H17.7656Z" fill="black"/>
</svg>
