<svg width="76" height="110" viewBox="0 0 76 110" fill="none" xmlns="http://www.w3.org/2000/svg">
<path d="M15.75 51.9375C18.875 48.8125 20.7188 47.0156 21.2812 46.5469C22.6875 45.3594 24.2031 44.4375 25.8281 43.7812C27.4531 43.125 29.0625 42.7969 30.6562 42.7969C33.3438 42.7969 35.6562 43.5781 37.5938 45.1406C39.5312 46.7031 40.8281 48.9688 41.4844 51.9375C44.7031 48.1875 47.4219 45.7344 49.6406 44.5781C51.8594 43.3906 54.1406 42.7969 56.4844 42.7969C58.7656 42.7969 60.7812 43.3906 62.5312 44.5781C64.3125 45.7344 65.7188 47.6406 66.75 50.2969C67.4375 52.1094 67.7812 54.9531 67.7812 58.8281V77.2969C67.7812 79.9844 67.9844 81.8281 68.3906 82.8281C68.7031 83.5156 69.2812 84.1094 70.125 84.6094C70.9688 85.0781 72.3438 85.3125 74.25 85.3125V87H53.0625V85.3125H53.9531C55.7969 85.3125 57.2344 84.9531 58.2656 84.2344C58.9844 83.7344 59.5 82.9375 59.8125 81.8438C59.9375 81.3125 60 79.7969 60 77.2969V58.8281C60 55.3281 59.5781 52.8594 58.7344 51.4219C57.5156 49.4219 55.5625 48.4219 52.875 48.4219C51.2188 48.4219 49.5469 48.8438 47.8594 49.6875C46.2031 50.5 44.1875 52.0312 41.8125 54.2812L41.7188 54.7969L41.8125 56.8125V77.2969C41.8125 80.2344 41.9688 82.0625 42.2812 82.7812C42.625 83.5 43.25 84.1094 44.1562 84.6094C45.0625 85.0781 46.6094 85.3125 48.7969 85.3125V87H27.0938V85.3125C29.4688 85.3125 31.0938 85.0312 31.9688 84.4688C32.875 83.9062 33.5 83.0625 33.8438 81.9375C34 81.4062 34.0781 79.8594 34.0781 77.2969V58.8281C34.0781 55.3281 33.5625 52.8125 32.5312 51.2812C31.1562 49.2812 29.2344 48.2812 26.7656 48.2812C25.0781 48.2812 23.4062 48.7344 21.75 49.6406C19.1562 51.0156 17.1562 52.5625 15.75 54.2812V77.2969C15.75 80.1094 15.9375 81.9375 16.3125 82.7812C16.7188 83.625 17.2969 84.2656 18.0469 84.7031C18.8281 85.1094 20.3906 85.3125 22.7344 85.3125V87H1.5V85.3125C3.46875 85.3125 4.84375 85.1094 5.625 84.7031C6.40625 84.2656 7 83.5938 7.40625 82.6875C7.8125 81.75 8.01562 79.9531 8.01562 77.2969V60.8906C8.01562 56.1719 7.875 53.125 7.59375 51.75C7.375 50.7188 7.03125 50.0156 6.5625 49.6406C6.09375 49.2344 5.45312 49.0312 4.64062 49.0312C3.76562 49.0312 2.71875 49.2656 1.5 49.7344L0.796875 48.0469L13.7344 42.7969H15.75V51.9375Z" fill="black"/>
</svg>
