<svg width="48" height="110" viewBox="0 0 48 110" fill="none" xmlns="http://www.w3.org/2000/svg">
<path d="M15.5156 51.8906C20.5469 45.8281 25.3438 42.7969 29.9062 42.7969C32.25 42.7969 34.2656 43.3906 35.9531 44.5781C37.6406 45.7344 38.9844 47.6562 39.9844 50.3438C40.6719 52.2188 41.0156 55.0938 41.0156 58.9688V77.2969C41.0156 80.0156 41.2344 81.8594 41.6719 82.8281C42.0156 83.6094 42.5625 84.2188 43.3125 84.6562C44.0938 85.0938 45.5156 85.3125 47.5781 85.3125V87H26.3438V85.3125H27.2344C29.2344 85.3125 30.625 85.0156 31.4062 84.4219C32.2188 83.7969 32.7812 82.8906 33.0938 81.7031C33.2188 81.2344 33.2812 79.7656 33.2812 77.2969V59.7188C33.2812 55.8125 32.7656 52.9844 31.7344 51.2344C30.7344 49.4531 29.0312 48.5625 26.625 48.5625C22.9062 48.5625 19.2031 50.5938 15.5156 54.6562V77.2969C15.5156 80.2031 15.6875 82 16.0312 82.6875C16.4688 83.5938 17.0625 84.2656 17.8125 84.7031C18.5938 85.1094 20.1562 85.3125 22.5 85.3125V87H1.26562V85.3125H2.20312C4.39062 85.3125 5.85938 84.7656 6.60938 83.6719C7.39062 82.5469 7.78125 80.4219 7.78125 77.2969V61.3594C7.78125 56.2031 7.65625 53.0625 7.40625 51.9375C7.1875 50.8125 6.82812 50.0469 6.32812 49.6406C5.85938 49.2344 5.21875 49.0312 4.40625 49.0312C3.53125 49.0312 2.48438 49.2656 1.26562 49.7344L0.5625 48.0469L13.5 42.7969H15.5156V51.8906Z" fill="black"/>
</svg>
