<svg width="48" height="110" viewBox="0 0 48 110" fill="none" xmlns="http://www.w3.org/2000/svg">
<path d="M24 42.7969C30.5 42.7969 35.7188 45.2656 39.6562 50.2031C43 54.4219 44.6719 59.2656 44.6719 64.7344C44.6719 68.5781 43.75 72.4688 41.9062 76.4062C40.0625 80.3438 37.5156 83.3125 34.2656 85.3125C31.0469 87.3125 27.4531 88.3125 23.4844 88.3125C17.0156 88.3125 11.875 85.7344 8.0625 80.5781C4.84375 76.2344 3.23438 71.3594 3.23438 65.9531C3.23438 62.0156 4.20312 58.1094 6.14062 54.2344C8.10938 50.3281 10.6875 47.4531 13.875 45.6094C17.0625 43.7344 20.4375 42.7969 24 42.7969ZM22.5469 45.8438C20.8906 45.8438 19.2188 46.3438 17.5312 47.3438C15.875 48.3125 14.5312 50.0312 13.5 52.5C12.4688 54.9688 11.9531 58.1406 11.9531 62.0156C11.9531 68.2656 13.1875 73.6562 15.6562 78.1875C18.1562 82.7188 21.4375 84.9844 25.5 84.9844C28.5312 84.9844 31.0312 83.7344 33 81.2344C34.9688 78.7344 35.9531 74.4375 35.9531 68.3438C35.9531 60.7188 34.3125 54.7188 31.0312 50.3438C28.8125 47.3438 25.9844 45.8438 22.5469 45.8438Z" fill="black"/>
</svg>
