<svg width="49" height="110" viewBox="0 0 49 110" fill="none" xmlns="http://www.w3.org/2000/svg">
<path d="M0.90625 48.3281L14.125 42.9844H15.9062V53.0156C18.125 49.2344 20.3438 46.5938 22.5625 45.0938C24.8125 43.5625 27.1719 42.7969 29.6406 42.7969C33.9531 42.7969 37.5469 44.4844 40.4219 47.8594C43.9531 51.9844 45.7188 57.3594 45.7188 63.9844C45.7188 71.3906 43.5938 77.5156 39.3438 82.3594C35.8438 86.3281 31.4375 88.3125 26.125 88.3125C23.8125 88.3125 21.8125 87.9844 20.125 87.3281C18.875 86.8594 17.4688 85.9219 15.9062 84.5156V97.5938C15.9062 100.531 16.0781 102.391 16.4219 103.172C16.7969 103.984 17.4219 104.625 18.2969 105.094C19.2031 105.562 20.8281 105.797 23.1719 105.797V107.531H0.671875V105.797H1.84375C3.5625 105.828 5.03125 105.5 6.25 104.812C6.84375 104.469 7.29688 103.906 7.60938 103.125C7.95312 102.375 8.125 100.438 8.125 97.3125V56.7188C8.125 53.9375 8 52.1719 7.75 51.4219C7.5 50.6719 7.09375 50.1094 6.53125 49.7344C6 49.3594 5.26562 49.1719 4.32812 49.1719C3.57812 49.1719 2.625 49.3906 1.46875 49.8281L0.90625 48.3281ZM15.9062 55.7812V71.8125C15.9062 75.2812 16.0469 77.5625 16.3281 78.6562C16.7656 80.4688 17.8281 82.0625 19.5156 83.4375C21.2344 84.8125 23.3906 85.5 25.9844 85.5C29.1094 85.5 31.6406 84.2812 33.5781 81.8438C36.1094 78.6562 37.375 74.1719 37.375 68.3906C37.375 61.8281 35.9375 56.7812 33.0625 53.25C31.0625 50.8125 28.6875 49.5938 25.9375 49.5938C24.4375 49.5938 22.9531 49.9688 21.4844 50.7188C20.3594 51.2812 18.5 52.9688 15.9062 55.7812Z" fill="black"/>
</svg>
