<svg width="48" height="110" viewBox="0 0 48 110" fill="none" xmlns="http://www.w3.org/2000/svg">
<path d="M41.0156 42.7969V98.0156C41.0156 100.766 41.2031 102.531 41.5781 103.312C41.9531 104.094 42.5312 104.703 43.3125 105.141C44.125 105.578 45.6875 105.797 48 105.797V107.531H26.3438V105.797H27.2344C28.9844 105.797 30.3125 105.547 31.2188 105.047C31.8438 104.703 32.3438 104.078 32.7188 103.172C33.0938 102.297 33.2812 100.578 33.2812 98.0156V79.5469C30.4375 82.9219 27.9531 85.2344 25.8281 86.4844C23.7031 87.7031 21.5 88.3125 19.2188 88.3125C15.0625 88.3125 11.3438 86.4219 8.0625 82.6406C4.8125 78.8594 3.1875 73.7969 3.1875 67.4531C3.1875 60.1719 5.34375 54.25 9.65625 49.6875C13.9688 45.0938 19.1719 42.7969 25.2656 42.7969C27.0469 42.7969 28.6875 43.0469 30.1875 43.5469C31.6875 44.0469 33.0312 44.7969 34.2188 45.7969C36.0312 44.9219 37.7656 43.9219 39.4219 42.7969H41.0156ZM33.2812 76.5938V56.4375C33.2812 54.0938 32.9688 52.25 32.3438 50.9062C31.75 49.5625 30.6719 48.4219 29.1094 47.4844C27.5469 46.5469 25.7812 46.0781 23.8125 46.0781C20.3125 46.0781 17.3125 47.5625 14.8125 50.5312C12.3125 53.5 11.0625 58 11.0625 64.0312C11.0625 69.8125 12.3281 74.2031 14.8594 77.2031C17.4219 80.2031 20.5 81.7031 24.0938 81.7031C25.9375 81.7031 27.5781 81.3125 29.0156 80.5312C30.4531 79.7188 31.875 78.4062 33.2812 76.5938Z" fill="black"/>
</svg>
