<svg width="33" height="110" viewBox="0 0 33 110" fill="none" xmlns="http://www.w3.org/2000/svg">
<path d="M15.5625 42.7969V52.4531C19.1562 46.0156 22.8438 42.7969 26.625 42.7969C28.3438 42.7969 29.7656 43.3281 30.8906 44.3906C32.0156 45.4219 32.5781 46.625 32.5781 48C32.5781 49.2188 32.1719 50.25 31.3594 51.0938C30.5469 51.9375 29.5781 52.3594 28.4531 52.3594C27.3594 52.3594 26.125 51.8281 24.75 50.7656C23.4062 49.6719 22.4062 49.125 21.75 49.125C21.1875 49.125 20.5781 49.4375 19.9219 50.0625C18.5156 51.3438 17.0625 53.4531 15.5625 56.3906V76.9688C15.5625 79.3438 15.8594 81.1406 16.4531 82.3594C16.8594 83.2031 17.5781 83.9062 18.6094 84.4688C19.6406 85.0312 21.125 85.3125 23.0625 85.3125V87H1.07812V85.3125C3.26562 85.3125 4.89062 84.9688 5.95312 84.2812C6.73438 83.7812 7.28125 82.9844 7.59375 81.8906C7.75 81.3594 7.82812 79.8438 7.82812 77.3438V60.7031C7.82812 55.7031 7.71875 52.7344 7.5 51.7969C7.3125 50.8281 6.9375 50.125 6.375 49.6875C5.84375 49.25 5.17188 49.0312 4.35938 49.0312C3.39062 49.0312 2.29688 49.2656 1.07812 49.7344L0.609375 48.0469L13.5938 42.7969H15.5625Z" fill="black"/>
</svg>
