<svg width="37" height="110" viewBox="0 0 37 110" fill="none" xmlns="http://www.w3.org/2000/svg">
<path d="M30.75 42.7969V57.4219H29.2031C28.0156 52.8281 26.4844 49.7031 24.6094 48.0469C22.7656 46.3906 20.4062 45.5625 17.5312 45.5625C15.3438 45.5625 13.5781 46.1406 12.2344 47.2969C10.8906 48.4531 10.2188 49.7344 10.2188 51.1406C10.2188 52.8906 10.7188 54.3906 11.7188 55.6406C12.6875 56.9219 14.6562 58.2812 17.625 59.7188L24.4688 63.0469C30.8125 66.1406 33.9844 70.2188 33.9844 75.2812C33.9844 79.1875 32.5 82.3438 29.5312 84.75C26.5938 87.125 23.2969 88.3125 19.6406 88.3125C17.0156 88.3125 14.0156 87.8438 10.6406 86.9062C9.60938 86.5938 8.76562 86.4375 8.10938 86.4375C7.39062 86.4375 6.82812 86.8438 6.42188 87.6562H4.875V72.3281H6.42188C7.29688 76.7031 8.96875 80 11.4375 82.2188C13.9062 84.4375 16.6719 85.5469 19.7344 85.5469C21.8906 85.5469 23.6406 84.9219 24.9844 83.6719C26.3594 82.3906 27.0469 80.8594 27.0469 79.0781C27.0469 76.9219 26.2812 75.1094 24.75 73.6406C23.25 72.1719 20.2344 70.3125 15.7031 68.0625C11.1719 65.8125 8.20312 63.7812 6.79688 61.9688C5.39062 60.1875 4.6875 57.9375 4.6875 55.2188C4.6875 51.6875 5.89062 48.7344 8.29688 46.3594C10.7344 43.9844 13.875 42.7969 17.7188 42.7969C19.4062 42.7969 21.4531 43.1562 23.8594 43.875C25.4531 44.3438 26.5156 44.5781 27.0469 44.5781C27.5469 44.5781 27.9375 44.4688 28.2188 44.25C28.5 44.0312 28.8281 43.5469 29.2031 42.7969H30.75Z" fill="black"/>
</svg>
