<svg width="27" height="110" viewBox="0 0 27 110" fill="none" xmlns="http://www.w3.org/2000/svg">
<path d="M15.4688 29.9531V44.0625H25.5V47.3438H15.4688V75.1875C15.4688 77.9688 15.8594 79.8438 16.6406 80.8125C17.4531 81.7812 18.4844 82.2656 19.7344 82.2656C20.7656 82.2656 21.7656 81.9531 22.7344 81.3281C23.7031 80.6719 24.4531 79.7188 24.9844 78.4688H26.8125C25.7188 81.5312 24.1719 83.8438 22.1719 85.4062C20.1719 86.9375 18.1094 87.7031 15.9844 87.7031C14.5469 87.7031 13.1406 87.3125 11.7656 86.5312C10.3906 85.7188 9.375 84.5781 8.71875 83.1094C8.0625 81.6094 7.73438 79.3125 7.73438 76.2188V47.3438H0.9375V45.7969C2.65625 45.1094 4.40625 43.9531 6.1875 42.3281C8 40.6719 9.60938 38.7188 11.0156 36.4688C11.7344 35.2812 12.7344 33.1094 14.0156 29.9531H15.4688Z" fill="black"/>
</svg>
