<svg width="48" height="110" viewBox="0 0 48 110" fill="none" xmlns="http://www.w3.org/2000/svg">
<path d="M40.6406 44.0625V70.0781C40.6406 75.0469 40.75 78.0938 40.9688 79.2188C41.2188 80.3125 41.5938 81.0781 42.0938 81.5156C42.625 81.9531 43.2344 82.1719 43.9219 82.1719C44.8906 82.1719 45.9844 81.9062 47.2031 81.375L47.8594 83.0156L35.0156 88.3125H32.9062V79.2188C29.2188 83.2188 26.4062 85.7344 24.4688 86.7656C22.5312 87.7969 20.4844 88.3125 18.3281 88.3125C15.9219 88.3125 13.8281 87.625 12.0469 86.25C10.2969 84.8438 9.07812 83.0469 8.39062 80.8594C7.70312 78.6719 7.35938 75.5781 7.35938 71.5781V52.4062C7.35938 50.375 7.14062 48.9688 6.70312 48.1875C6.26562 47.4062 5.60938 46.8125 4.73438 46.4062C3.89062 45.9688 2.34375 45.7656 0.09375 45.7969V44.0625H15.1406V72.7969C15.1406 76.7969 15.8281 79.4219 17.2031 80.6719C18.6094 81.9219 20.2969 82.5469 22.2656 82.5469C23.6094 82.5469 25.125 82.125 26.8125 81.2812C28.5312 80.4375 30.5625 78.8281 32.9062 76.4531V52.125C32.9062 49.6875 32.4531 48.0469 31.5469 47.2031C30.6719 46.3281 28.8281 45.8594 26.0156 45.7969V44.0625H40.6406Z" fill="black"/>
</svg>
