<svg width="48" height="110" viewBox="0 0 48 110" fill="none" xmlns="http://www.w3.org/2000/svg">
<path d="M0.796875 44.0625H21V45.7969H19.6875C18.4688 45.7969 17.5312 46.0938 16.875 46.6875C16.25 47.2812 15.9375 48.0781 15.9375 49.0781C15.9375 50.1719 16.2656 51.4688 16.9219 52.9688L26.9062 76.6875L36.9375 52.0781C37.6562 50.3281 38.0156 49 38.0156 48.0938C38.0156 47.6562 37.8906 47.2969 37.6406 47.0156C37.2969 46.5469 36.8594 46.2344 36.3281 46.0781C35.7969 45.8906 34.7188 45.7969 33.0938 45.7969V44.0625H47.1094V45.7969C45.4844 45.9219 44.3594 46.25 43.7344 46.7812C42.6406 47.7188 41.6562 49.2812 40.7812 51.4688L25.5469 88.3125H23.625L8.29688 52.0781C7.60938 50.3906 6.95312 49.1875 6.32812 48.4688C5.70312 47.7188 4.90625 47.0938 3.9375 46.5938C3.40625 46.3125 2.35938 46.0469 0.796875 45.7969V44.0625Z" fill="black"/>
</svg>
