<svg width="69" height="110" viewBox="0 0 69 110" fill="none" xmlns="http://www.w3.org/2000/svg">
<path d="M0.609375 44.0625H18.6094V45.7969C16.9531 45.9219 15.8594 46.2188 15.3281 46.6875C14.8281 47.1562 14.5781 47.8281 14.5781 48.7031C14.5781 49.6719 14.8438 50.8438 15.375 52.2188L24.5625 76.9219L33.7969 56.8125L31.3594 50.4844C30.6094 48.6094 29.625 47.3125 28.4062 46.5938C27.7188 46.1562 26.4375 45.8906 24.5625 45.7969V44.0625H45V45.7969C42.75 45.8906 41.1562 46.2969 40.2188 47.0156C39.5938 47.5156 39.2812 48.3125 39.2812 49.4062C39.2812 50.0312 39.4062 50.6719 39.6562 51.3281L49.4062 75.9844L58.4531 52.2188C59.0781 50.5312 59.3906 49.1875 59.3906 48.1875C59.3906 47.5938 59.0781 47.0625 58.4531 46.5938C57.8594 46.125 56.6719 45.8594 54.8906 45.7969V44.0625H68.4375V45.7969C65.7188 46.2031 63.7188 48.0469 62.4375 51.3281L48.0938 88.3125H46.1719L35.4375 60.8906L22.9219 88.3125H21.1875L7.40625 52.2188C6.5 49.9375 5.60938 48.4062 4.73438 47.625C3.85938 46.8125 2.48438 46.2031 0.609375 45.7969V44.0625Z" fill="black"/>
</svg>
