<svg width="48" height="110" viewBox="0 0 48 110" fill="none" xmlns="http://www.w3.org/2000/svg">
<path d="M1.26562 44.0625H21.4688V45.7969C20.1875 45.7969 19.2812 46.0156 18.75 46.4531C18.25 46.8906 18 47.4688 18 48.1875C18 48.9375 18.5469 50.0938 19.6406 51.6562C19.9844 52.1562 20.5 52.9375 21.1875 54L24.2344 58.875L27.75 54C30 50.9062 31.125 48.9531 31.125 48.1406C31.125 47.4844 30.8594 46.9375 30.3281 46.5C29.7969 46.0312 28.9375 45.7969 27.75 45.7969V44.0625H42.2812V45.7969C40.75 45.8906 39.4219 46.3125 38.2969 47.0625C36.7656 48.125 34.6719 50.4375 32.0156 54L26.1562 61.8281L36.8438 77.2031C39.4688 80.9844 41.3438 83.2656 42.4688 84.0469C43.5938 84.7969 45.0469 85.2188 46.8281 85.3125V87H26.5781V85.3125C27.9844 85.3125 29.0781 85 29.8594 84.375C30.4531 83.9375 30.75 83.3594 30.75 82.6406C30.75 81.9219 29.75 80.1094 27.75 77.2031L21.4688 68.0156L14.5781 77.2031C12.4531 80.0469 11.3906 81.7344 11.3906 82.2656C11.3906 83.0156 11.7344 83.7031 12.4219 84.3281C13.1406 84.9219 14.2031 85.25 15.6094 85.3125V87H1.59375V85.3125C2.71875 85.1562 3.70312 84.7656 4.54688 84.1406C5.73438 83.2344 7.73438 80.9219 10.5469 77.2031L19.5469 65.25L11.3906 53.4375C9.07812 50.0625 7.28125 47.9531 6 47.1094C4.75 46.2344 3.17188 45.7969 1.26562 45.7969V44.0625Z" fill="black"/>
</svg>
