<svg width="48" height="110" viewBox="0 0 48 110" fill="none" xmlns="http://www.w3.org/2000/svg">
<path d="M0.5625 44.0625H20.5781V45.7969H19.5938C18.1875 45.7969 17.125 46.1094 16.4062 46.7344C15.7188 47.3281 15.375 48.0781 15.375 48.9844C15.375 50.2031 15.8906 51.8906 16.9219 54.0469L27.375 75.7031L36.9844 51.9844C37.5156 50.7031 37.7812 49.4375 37.7812 48.1875C37.7812 47.625 37.6719 47.2031 37.4531 46.9219C37.2031 46.5781 36.8125 46.3125 36.2812 46.125C35.75 45.9062 34.8125 45.7969 33.4688 45.7969V44.0625H47.4375V45.7969C46.2812 45.9219 45.3906 46.1719 44.7656 46.5469C44.1406 46.9219 43.4531 47.625 42.7031 48.6562C42.4219 49.0938 41.8906 50.2969 41.1094 52.2656L23.625 95.1094C21.9375 99.2656 19.7188 102.406 16.9688 104.531C14.25 106.656 11.625 107.719 9.09375 107.719C7.25 107.719 5.73438 107.188 4.54688 106.125C3.35938 105.062 2.76562 103.844 2.76562 102.469C2.76562 101.156 3.1875 100.094 4.03125 99.2812C4.90625 98.5 6.09375 98.1094 7.59375 98.1094C8.625 98.1094 10.0312 98.4531 11.8125 99.1406C13.0625 99.6094 13.8438 99.8438 14.1562 99.8438C15.0938 99.8438 16.1094 99.3594 17.2031 98.3906C18.3281 97.4219 19.4531 95.5469 20.5781 92.7656L23.625 85.3125L8.20312 52.9219C7.73438 51.9531 6.98438 50.75 5.95312 49.3125C5.17188 48.2188 4.53125 47.4844 4.03125 47.1094C3.3125 46.6094 2.15625 46.1719 0.5625 45.7969V44.0625Z" fill="black"/>
</svg>
