<svg width="54" height="117" viewBox="0 0 54 117" fill="none" xmlns="http://www.w3.org/2000/svg">
<path d="M50.0156 54.2031H30.2812V40.9844C30.2812 37.1406 30.0625 34.75 29.625 33.8125C29.2188 32.8438 28.2969 32.3594 26.8594 32.3594C25.2344 32.3594 24.2031 32.9375 23.7656 34.0938C23.3281 35.25 23.1094 37.75 23.1094 41.5938V76.8438C23.1094 80.5312 23.3281 82.9375 23.7656 84.0625C24.2031 85.1875 25.1875 85.75 26.7188 85.75C28.1875 85.75 29.1406 85.1875 29.5781 84.0625C30.0469 82.9375 30.2812 80.2969 30.2812 76.1406V66.625H50.0156V69.5781C50.0156 77.4219 49.4531 82.9844 48.3281 86.2656C47.2344 89.5469 44.7812 92.4219 40.9688 94.8906C37.1875 97.3594 32.5156 98.5938 26.9531 98.5938C21.1719 98.5938 16.4062 97.5469 12.6562 95.4531C8.90625 93.3594 6.42188 90.4688 5.20312 86.7812C3.98438 83.0625 3.375 77.4844 3.375 70.0469V47.875C3.375 42.4062 3.5625 38.3125 3.9375 35.5938C4.3125 32.8438 5.42188 30.2031 7.26562 27.6719C9.14062 25.1406 11.7188 23.1563 15 21.7188C18.3125 20.25 22.1094 19.5156 26.3906 19.5156C32.2031 19.5156 37 20.6406 40.7812 22.8906C44.5625 25.1406 47.0469 27.9531 48.2344 31.3281C49.4219 34.6719 50.0156 39.8906 50.0156 46.9844V54.2031Z" fill="black"/>
</svg>
