<svg width="53" height="117" viewBox="0 0 53 117" fill="none" xmlns="http://www.w3.org/2000/svg">
<path d="M49.2188 49.0469H29.4844V42.1562C29.4844 37.8125 29.2969 35.0938 28.9219 34C28.5469 32.9062 27.6562 32.3594 26.25 32.3594C25.0312 32.3594 24.2031 32.8281 23.7656 33.7656C23.3281 34.7031 23.1094 37.1094 23.1094 40.9844V77.4062C23.1094 80.8125 23.3281 83.0625 23.7656 84.1562C24.2031 85.2188 25.0781 85.75 26.3906 85.75C27.8281 85.75 28.7969 85.1406 29.2969 83.9219C29.8281 82.7031 30.0938 80.3281 30.0938 76.7969V67.7969H26.1094V56.2656H49.2188V97H36.7969L34.9688 91.5625C33.625 93.9062 31.9219 95.6719 29.8594 96.8594C27.8281 98.0156 25.4219 98.5938 22.6406 98.5938C19.3281 98.5938 16.2188 97.7969 13.3125 96.2031C10.4375 94.5781 8.25 92.5781 6.75 90.2031C5.25 87.8281 4.3125 85.3438 3.9375 82.75C3.5625 80.125 3.375 76.2031 3.375 70.9844V48.4375C3.375 41.1875 3.76562 35.9219 4.54688 32.6406C5.32812 29.3594 7.5625 26.3594 11.25 23.6406C14.9688 20.8906 19.7656 19.5156 25.6406 19.5156C31.4219 19.5156 36.2188 20.7031 40.0312 23.0781C43.8438 25.4531 46.3281 28.2812 47.4844 31.5625C48.6406 34.8125 49.2188 39.5469 49.2188 45.7656V49.0469Z" fill="black"/>
</svg>
