<svg width="53" height="117" viewBox="0 0 53 117" fill="none" xmlns="http://www.w3.org/2000/svg">
<path d="M49.0312 65.5469C49.0312 73.1719 48.8438 78.5781 48.4688 81.7656C48.125 84.9219 47 87.8125 45.0938 90.4375C43.2188 93.0625 40.6719 95.0781 37.4531 96.4844C34.2344 97.8906 30.4844 98.5938 26.2031 98.5938C22.1406 98.5938 18.4844 97.9375 15.2344 96.625C12.0156 95.2812 9.42188 93.2812 7.45312 90.625C5.48438 87.9688 4.3125 85.0781 3.9375 81.9531C3.5625 78.8281 3.375 73.3594 3.375 65.5469V52.5625C3.375 44.9375 3.54688 39.5469 3.89062 36.3906C4.26562 33.2031 5.39062 30.2969 7.26562 27.6719C9.17188 25.0469 11.7344 23.0312 14.9531 21.625C18.1719 20.2188 21.9219 19.5156 26.2031 19.5156C30.2656 19.5156 33.9062 20.1875 37.125 21.5312C40.375 22.8438 42.9844 24.8281 44.9531 27.4844C46.9219 30.1406 48.0938 33.0312 48.4688 36.1562C48.8438 39.2812 49.0312 44.75 49.0312 52.5625V65.5469ZM29.2969 40.6094C29.2969 37.0781 29.0938 34.8281 28.6875 33.8594C28.3125 32.8594 27.5156 32.3594 26.2969 32.3594C25.2656 32.3594 24.4688 32.7656 23.9062 33.5781C23.375 34.3594 23.1094 36.7031 23.1094 40.6094V76.0469C23.1094 80.4531 23.2812 83.1719 23.625 84.2031C24 85.2344 24.8438 85.75 26.1562 85.75C27.5 85.75 28.3594 85.1562 28.7344 83.9688C29.1094 82.7812 29.2969 79.9531 29.2969 75.4844V40.6094Z" fill="black"/>
</svg>
