<svg width="52" height="117" viewBox="0 0 52 117" fill="none" xmlns="http://www.w3.org/2000/svg">
<path d="M3.9375 21.1094H17.9062C27.2188 21.1094 33.5156 21.4688 36.7969 22.1875C40.1094 22.9062 42.7969 24.75 44.8594 27.7188C46.9531 30.6563 48 35.3594 48 41.8281C48 47.7344 47.2656 51.7031 45.7969 53.7344C44.3281 55.7656 41.4375 56.9844 37.125 57.3906C41.0312 58.3594 43.6562 59.6562 45 61.2812C46.3438 62.9062 47.1719 64.4062 47.4844 65.7812C47.8281 67.125 48 70.8594 48 76.9844V97H29.6719V71.7812C29.6719 67.7188 29.3438 65.2031 28.6875 64.2344C28.0625 63.2656 26.3906 62.7812 23.6719 62.7812V97H3.9375V21.1094ZM23.6719 34.0938V50.9688C25.8906 50.9688 27.4375 50.6719 28.3125 50.0781C29.2188 49.4531 29.6719 47.4688 29.6719 44.125V39.9531C29.6719 37.5469 29.2344 35.9688 28.3594 35.2188C27.5156 34.4688 25.9531 34.0938 23.6719 34.0938Z" fill="black"/>
</svg>
