<svg width="50" height="117" viewBox="0 0 50 117" fill="none" xmlns="http://www.w3.org/2000/svg">
<path d="M45.75 44.0781H27.4219V38.4531C27.4219 35.8281 27.1875 34.1562 26.7188 33.4375C26.25 32.7188 25.4688 32.3594 24.375 32.3594C23.1875 32.3594 22.2812 32.8438 21.6562 33.8125C21.0625 34.7812 20.7656 36.25 20.7656 38.2188C20.7656 40.75 21.1094 42.6562 21.7969 43.9375C22.4531 45.2188 24.3125 46.7656 27.375 48.5781C36.1562 53.7969 41.6875 58.0781 43.9688 61.4219C46.25 64.7656 47.3906 70.1562 47.3906 77.5938C47.3906 83 46.75 86.9844 45.4688 89.5469C44.2188 92.1094 41.7812 94.2656 38.1562 96.0156C34.5312 97.7344 30.3125 98.5938 25.5 98.5938C20.2188 98.5938 15.7031 97.5938 11.9531 95.5938C8.23438 93.5938 5.79688 91.0469 4.64062 87.9531C3.48438 84.8594 2.90625 80.4688 2.90625 74.7812V69.8125H21.2344V79.0469C21.2344 81.8906 21.4844 83.7188 21.9844 84.5312C22.5156 85.3438 23.4375 85.75 24.75 85.75C26.0625 85.75 27.0312 85.2344 27.6562 84.2031C28.3125 83.1719 28.6406 81.6406 28.6406 79.6094C28.6406 75.1406 28.0312 72.2188 26.8125 70.8438C25.5625 69.4688 22.4844 67.1719 17.5781 63.9531C12.6719 60.7031 9.42188 58.3438 7.82812 56.875C6.23438 55.4062 4.90625 53.375 3.84375 50.7812C2.8125 48.1875 2.29688 44.875 2.29688 40.8438C2.29688 35.0312 3.03125 30.7812 4.5 28.0938C6 25.4063 8.40625 23.3125 11.7188 21.8125C15.0312 20.2812 19.0312 19.5156 23.7188 19.5156C28.8438 19.5156 33.2031 20.3438 36.7969 22C40.4219 23.6562 42.8125 25.75 43.9688 28.2812C45.1562 30.7812 45.75 35.0469 45.75 41.0781V44.0781Z" fill="black"/>
</svg>
