<svg width="53" height="117" viewBox="0 0 53 117" fill="none" xmlns="http://www.w3.org/2000/svg">
<path d="M48.7969 21.1094V71.8281C48.7969 77.5781 48.6094 81.625 48.2344 83.9688C47.8594 86.2812 46.75 88.6719 44.9062 91.1406C43.0625 93.5781 40.625 95.4375 37.5938 96.7188C34.5938 97.9688 31.0469 98.5938 26.9531 98.5938C22.4219 98.5938 18.4219 97.8438 14.9531 96.3438C11.4844 94.8438 8.89062 92.8906 7.17188 90.4844C5.45312 88.0781 4.4375 85.5469 4.125 82.8906C3.8125 80.2031 3.65625 74.5781 3.65625 66.0156V21.1094H23.3906V78.0156C23.3906 81.3281 23.5625 83.4531 23.9062 84.3906C24.2812 85.2969 25.0156 85.75 26.1094 85.75C27.3594 85.75 28.1562 85.25 28.5 84.25C28.875 83.2188 29.0625 80.8125 29.0625 77.0312V21.1094H48.7969Z" fill="black"/>
</svg>
